<svg xmlns="http://www.w3.org/2000/svg" width="256" height="256" viewBox="0 0 256 256"><path d="M0 0L0 256L257 256L257 0ZM0 1L0 257L1 128Z" fill-rule="evenodd" style="fill:#090806;"/><path d="M31 0L31 5L36 4L35 13L40 12L39 22L44 21L39 36L48 25L51 30L51 24L55 24L54 30L61 31L63 25L75 30L88 38L87 43L72 36L86 44L95 34L91 38L127 80L132 80L130 73L132 77L141 77L132 73L152 71L154 80L162 73L158 61L163 58L168 46L165 56L170 52L171 72L179 79L184 77L189 88L185 92L199 96L198 89L189 86L191 82L186 81L187 77L181 76L184 63L188 64L183 74L188 67L197 72L202 64L200 70L210 74L215 90L216 111L213 104L212 112L207 110L207 117L213 122L211 128L214 126L208 145L222 148L224 98L224 109L228 101L229 105L232 78L202 62L200 57L197 65L193 63L197 60L190 61L188 54L186 57L183 45L175 38L174 44L166 27L176 1L163 24L149 23L146 26L153 28L159 45L165 46L159 50L163 55L159 60L157 54L155 57L153 40L141 30L151 0L147 1L138 29L132 28L148 51L152 68L148 53L136 42L139 40L131 38L113 42L118 41L115 46L113 38L135 37L128 26L124 28L115 20L93 22L112 25L104 30L113 37L104 31L101 33L89 23L76 0L83 20L47 21L52 18L44 12L46 8L39 5L39 0ZM201 3L199 7L200 9L203 7L204 3ZM197 10L192 26L172 34L173 38L176 36L186 48L192 39L210 31L215 32L214 36L218 33L229 46L231 38L235 41L236 33L227 29L227 35L221 34L212 25L221 12L203 25L197 24L201 11ZM252 14L253 16L254 16L254 14ZM248 17L249 19L251 20L250 18ZM244 19L246 23L248 23L248 21L246 19ZM241 21L241 22L243 26L246 26L244 22ZM61 23L56 27L60 26L59 30ZM238 24L231 28L238 34L238 31L241 34L240 28L245 32ZM11 26L11 28L15 29L16 28L15 26ZM113 28L111 30L118 29ZM66 28L66 31L62 30L65 33ZM9 30L4 36L7 40L1 43L4 47L0 47L0 56L13 34ZM93 31L94 33L95 33L95 31ZM99 32L97 37L103 40ZM211 33L207 37L212 35L212 34ZM51 39L58 45L52 48L46 42L45 50L47 46L56 51L71 67L75 69L86 60L76 72L86 78L87 74L99 93L94 70L114 90L112 97L115 93L118 99L123 100L127 92L131 93L134 87L118 82L112 86L104 76L101 77L104 74L97 72L96 67L98 71L91 70L94 66L83 50L79 50L82 48L77 51L76 46L73 50L68 43ZM131 39L119 42L135 42ZM197 39L197 42L199 41L199 39ZM131 43L131 48L137 48ZM166 43L167 45L168 45L168 43ZM169 43L169 45L171 44L171 43ZM43 44L35 56L35 58L37 54L39 55L39 52L44 45ZM67 44L68 46L70 46L69 44ZM120 44L116 51L125 55ZM126 44L123 48L128 50ZM152 46L152 48L154 51L154 49ZM208 46L208 48L210 48L209 46ZM58 47L57 49L59 49L59 47ZM60 47L64 51L62 55L66 51ZM92 47L94 50L95 49L94 47ZM137 48L138 53L143 53ZM129 49L123 58L126 61L130 61L130 54L144 59L144 54ZM99 50L96 51L100 55ZM110 51L110 53L112 54L111 51ZM205 52L200 53L206 60L209 57ZM65 54L67 60L70 56ZM65 55L66 57L67 57L67 55ZM121 55L121 58L125 55ZM130 56L131 62L137 59ZM0 57L0 62L1 59ZM109 57L110 59L112 59L111 57ZM186 57L185 61L191 63ZM71 59L70 61L72 62L73 66L76 67L73 64L77 64L72 60L73 59ZM146 59L140 63L146 63ZM136 60L128 63L133 67L131 64L141 66ZM105 61L106 63L107 63L107 61ZM123 63L125 67L127 68L124 63ZM47 65L45 67L50 67ZM253 65L253 67L256 71L256 65ZM110 66L110 67L114 71L114 69ZM54 67L47 71L39 68L30 72L42 70L20 77L23 77L15 84L29 80L39 95L47 86L44 83L49 69L48 80L59 79L63 72L59 67L51 73ZM78 67L83 73L85 74L81 68ZM127 69L128 72L129 71ZM250 69L246 74L251 78L254 70ZM42 71L39 75L44 73ZM59 72L59 74L61 73L61 72ZM116 73L118 77L119 76L118 73ZM142 73L141 75L144 76L146 75L146 73ZM36 74L36 76L38 76L37 74ZM150 74L149 76L151 76L151 74ZM243 74L238 75L245 83L248 80ZM33 75L31 77L32 78L34 76ZM159 75L158 88L168 101L176 93L175 90L172 94L172 85ZM16 76L15 78L17 78L20 76ZM26 76L24 78L29 79ZM82 77L84 79L85 78ZM54 79L53 81L55 82L56 81ZM176 79L176 83L175 89L178 81ZM234 79L232 85L237 89L240 81ZM141 80L133 82L135 91L137 86L146 86L144 84L152 83L153 88L151 81ZM25 82L24 84L26 84L26 82ZM47 83L42 94L52 92L40 97L54 114L57 117L58 111L50 108L50 98L46 101L49 101L47 105L47 97L80 137L78 141L67 128L78 142L85 136L93 138L66 96L50 90L65 95L61 86ZM117 83L119 84L120 83ZM13 85L10 93L13 87L16 91ZM73 85L76 87L73 89L75 91L77 89L75 86ZM118 85L113 88L117 91ZM139 85L141 86L142 85ZM147 85L147 86L151 87L151 85ZM218 85L221 87L224 87L220 85ZM56 86L56 89L58 89L57 86ZM224 86L224 96L225 95L225 87ZM36 87L36 88L38 92L40 91L40 89ZM155 87L156 90L158 90L158 88ZM204 87L204 89L206 89L206 87ZM232 87L232 91L234 90L233 87ZM213 88L210 93L212 93L214 88ZM90 89L89 93L91 90ZM78 90L74 93L77 92L78 103L83 103L79 108L93 106ZM143 90L136 92L139 97L134 92L128 97L123 116L128 120L128 126L145 135L143 137L156 138L152 134L168 127L164 127L169 125L167 120L170 122L171 117L167 119L172 112L158 93ZM200 91L200 94L202 94L202 92ZM68 92L67 94L70 98L72 99L72 97L69 96L70 93ZM228 92L228 95L226 95L227 97L229 95ZM6 93L1 95L5 104L10 93ZM144 93L143 95L151 95L156 96L152 94ZM210 94L209 108L211 101L215 102ZM212 94L212 96L214 96L214 94ZM177 95L172 102L173 121L179 123L177 113L181 103ZM60 96L67 106L68 106L66 103ZM136 96L130 107L135 101L151 98L162 108L162 124L164 107L158 99ZM131 98L131 101L134 99L134 98ZM159 98L159 99L163 102L160 98ZM192 98L192 100L198 101L195 98ZM110 99L108 113L112 116L106 115L114 126L123 121L117 115L118 104L121 105ZM1 101L0 104L1 105L3 102ZM193 101L193 103L198 103L195 101ZM195 104L192 114L198 114ZM81 105L81 107L83 107L82 105ZM102 105L102 108L101 113L104 110L104 105ZM68 107L70 111L72 112L70 108ZM133 107L129 108L129 113L131 113L130 110L134 107ZM27 108L27 110L25 109L21 117L16 130L18 133L20 132L20 131L21 127L28 109ZM227 108L226 121L223 120L226 128ZM251 108L244 117L244 119L245 119L249 115L249 112L252 109ZM86 109L86 116L92 113ZM119 109L119 116L120 112ZM213 109L214 116L212 115L212 117L215 117L212 119L215 121L215 113ZM73 112L72 114L75 117L75 115ZM101 113L101 115L103 115L104 113ZM128 114L130 120L130 121L132 121L131 117L131 114ZM194 115L188 126L184 124L187 132L181 134L191 132L198 137L198 118ZM59 116L58 118L59 119L60 116ZM89 116L96 138L101 141L109 138L103 130L96 128L94 117ZM102 116L102 121L104 122L103 116ZM120 116L120 121L121 118ZM112 117L112 121L114 121L114 117ZM76 118L76 120L80 125L79 121L81 122L81 121ZM175 118L175 120L177 121L177 118ZM243 119L240 127L245 121ZM208 120L204 147L212 131ZM112 122L113 125L114 125L114 122ZM131 122L133 123L134 122ZM173 122L161 141L166 143L173 136L178 125ZM63 123L63 125L67 128L64 124ZM124 124L113 132L139 146L139 138ZM134 124L134 126L141 131L144 131L143 129L140 129ZM158 124L156 130L145 132L156 131L161 127ZM80 125L80 126L84 129L81 125ZM129 127L130 129L131 129L131 127ZM237 128L238 130L239 130L240 128ZM83 129L83 130L87 133L84 129ZM117 129L119 134L122 131ZM132 129L131 131L136 133L133 130ZM220 130L218 142L219 143L219 139L222 141L222 138L220 139L221 130ZM170 131L170 133L172 134L171 131ZM222 131L222 136L223 133ZM30 132L32 136L43 147L43 146ZM236 132L236 134L238 134L238 132ZM256 132L253 134L256 136L256 132ZM63 133L63 135L65 134L65 133ZM122 133L120 136L122 136L123 134ZM137 134L139 136L140 135ZM158 134L156 137L158 137L158 135L160 136L160 134ZM17 135L13 138L21 140ZM129 136L129 138L131 138L131 136ZM187 136L187 138L193 140L191 136ZM86 137L82 145L98 173L101 172L102 181L99 150L96 150L95 140ZM253 137L251 142L256 144ZM164 138L165 140L167 140L166 138ZM48 139L48 141L51 144L49 139ZM135 139L134 141L135 142L136 139ZM156 139L141 140L143 156L146 157L146 149L159 148L162 153L163 143ZM187 139L183 143L190 147ZM5 140L0 143L9 141ZM137 140L136 142L137 143L138 140ZM10 141L10 143L13 143L13 141ZM16 142L19 145L20 144L20 142ZM71 142L71 147L72 144ZM104 142L105 147L109 145ZM84 143L84 145L87 145L86 143ZM59 144L48 158L45 171ZM183 144L178 152L183 154L187 147ZM220 144L220 148L221 145ZM251 145L239 177L245 174L254 147ZM212 146L209 152L204 150L204 156L208 153L186 193L197 183L216 150L217 157L218 149ZM71 147L71 154L74 162L76 162L74 159L75 159L72 155L72 148ZM108 147L107 153L113 151ZM20 148L17 150L20 150L20 148ZM147 151L147 155L156 154ZM111 153L110 159L117 158ZM179 153L172 162L171 173L176 173L175 162L179 163L181 158ZM10 155L10 167L21 180L42 187L16 173ZM121 155L134 174L137 170ZM168 155L167 156L167 159L169 159L169 155ZM164 158L160 169L167 161ZM217 158L213 160L216 160L217 158ZM113 159L113 171L120 171L112 166L117 165ZM24 160L24 162L28 168L29 168L25 160ZM16 163L16 167L18 167L19 164L18 163ZM6 166L2 167L4 174L0 170L0 178L9 171ZM57 166L58 174L73 194L77 192L86 199L86 195L100 195L82 193L66 176L63 179ZM43 170L44 173L45 172ZM81 172L81 173L88 179L82 172ZM113 172L113 175L117 174L118 172ZM170 174L170 177L172 177L175 178L174 175ZM115 175L112 177L118 178ZM217 177L217 178L216 181L218 182L218 177ZM169 178L171 181L174 181L171 178ZM237 178L233 186L239 188ZM114 179L116 180L117 179ZM112 180L112 183L118 183ZM101 181L101 183L103 183L102 181ZM169 182L172 186L176 182ZM111 185L112 187L119 187L120 186ZM122 185L127 212L166 208L160 193L161 203L135 204L135 212L131 191L125 191ZM64 186L64 187L69 189L66 186ZM140 188L142 189L145 188ZM158 188L159 192L160 190ZM170 188L170 189L173 190L173 188ZM234 188L228 196L234 198ZM109 192L111 195L118 195L119 193L112 194ZM125 192L127 193L128 192ZM171 192L172 194L173 194L173 192ZM175 194L169 196L174 196L175 194ZM149 198L143 200L148 200L149 198ZM229 198L223 207L230 208L227 203L231 206L234 202ZM170 200L172 201L175 200ZM53 201L53 202L56 203L55 201ZM129 201L128 203L130 203L130 201ZM108 203L110 205L111 204ZM160 204L159 208L162 208L162 205ZM36 206L36 207L52 213L61 214L70 216L74 216L73 215L53 211L39 207ZM121 207L121 208L123 212L126 215L126 212L124 212ZM223 210L224 215L220 216L223 219L217 225L230 226L229 211ZM13 220L14 222L16 223L16 221ZM202 220L191 241L195 242L199 235ZM17 222L17 223L20 226L21 226L21 224ZM90 223L90 225L92 225L92 223ZM22 226L22 228L24 228L24 226ZM221 227L223 228L226 227ZM221 229L218 236L228 236L225 231L229 231ZM28 230L28 232L33 234L35 234L34 232L32 233L31 230ZM153 230L146 232L152 232L153 230ZM139 232L142 233L146 232ZM134 233L136 234L139 233ZM39 236L41 238L42 237ZM98 236L92 242L94 245L100 238ZM222 237L224 238L225 237ZM168 238L163 245L154 254L155 255L166 244L169 239ZM220 239L221 256L229 256L224 253L228 249L222 246L229 246L227 241ZM190 242L179 256L188 252ZM55 245L55 247L57 247L57 245ZM93 245L85 256L95 248Z" fill-rule="evenodd" style="fill:#302f2d;"/><path d="M38 6L37 7L38 11L41 11L42 9L39 8L40 6ZM41 13L44 20L49 17ZM61 19L60 21L62 21L62 19ZM46 21L46 26L50 23ZM65 21L62 24L64 24L67 21ZM56 22L56 24L60 24L60 22ZM66 23L65 25L67 25L68 23ZM71 25L70 27L77 31L78 30L71 27L72 25ZM115 25L117 26L120 25ZM156 25L156 27L158 27L157 25ZM152 26L153 29L155 29L155 27ZM207 26L183 39L185 43L181 41L184 45L212 30ZM54 28L54 30L56 29L56 28ZM127 28L108 31L114 38L133 36ZM158 28L164 42L159 43L170 47L165 43L168 35L165 36ZM133 29L136 37L141 35L146 44L153 71L149 60L147 66L135 67L123 59L123 62L131 67L131 70L127 68L130 72L154 72L154 80L160 72L158 66L154 67L154 57L154 65L157 65L154 52L151 56L143 36ZM214 29L214 32L217 32L215 29ZM234 29L235 31L237 31L236 29ZM119 30L119 32L122 32L123 30ZM79 31L86 37L85 31ZM97 31L96 33L100 32L100 31ZM115 31L117 32L118 31ZM231 31L228 34L231 37L235 33ZM126 32L123 35L128 35ZM94 33L88 38L88 40L92 36L95 33ZM106 33L112 42L110 34ZM116 34L115 36L118 36L117 34ZM98 35L100 38L99 39L103 41L101 36ZM158 35L158 38L159 38L160 35ZM181 35L181 38L182 38L183 35ZM225 36L227 43L230 39ZM141 37L141 39L145 44L142 37ZM147 38L147 40L151 45L148 38ZM105 39L105 41L109 44L106 40ZM134 39L134 40L137 41L136 39ZM159 39L159 43L160 40ZM125 40L127 41L130 40ZM167 41L170 43L171 43L170 41ZM103 42L104 49L107 48ZM178 42L178 44L182 47L183 47L182 44ZM111 43L112 45L113 45L113 43ZM119 43L119 45L121 46L125 44L120 45ZM45 44L45 49L46 49L47 44ZM58 44L60 46L61 45ZM128 44L128 46L130 47L130 45ZM108 45L108 47L111 50L111 45ZM138 46L138 48L142 49L142 48ZM164 46L164 50L165 47ZM55 47L54 49L56 51L57 48ZM121 47L122 50L125 50L125 49ZM130 48L132 49L135 48ZM152 48L151 51L154 51L153 48ZM69 49L65 50L76 65L83 61L78 51L68 53L72 50ZM129 49L126 51L128 51L129 49ZM135 49L135 51L137 54L137 52ZM178 49L179 50L185 51L184 50ZM113 50L113 52L111 51L113 55L114 55L114 50ZM163 50L162 53L164 54L164 50ZM175 50L176 52L177 52L177 50ZM108 51L111 57L111 54ZM116 52L118 56L112 57L114 66L132 80L121 61L115 60L121 61ZM138 53L141 54L145 58L145 56L143 56L143 53ZM170 53L171 72L179 79L185 53L176 56ZM134 54L134 56L136 56L135 54ZM204 54L202 56L204 57L205 55ZM130 55L129 57L132 56L132 55ZM121 56L122 58L123 58L123 56ZM161 56L161 60L162 57ZM182 56L183 59L184 58ZM130 59L130 60L133 61L132 59ZM66 60L66 63L68 64L68 63ZM183 60L180 62L183 62L183 60ZM172 61L177 75L176 63ZM84 62L78 69L86 77L88 72L87 78L92 77L92 82L94 79L92 83L96 85ZM117 62L118 65L120 64L120 63ZM199 63L199 65L201 64L201 63ZM180 64L179 68L181 65ZM207 64L202 70L208 65L221 73ZM196 65L195 67L197 69L198 67ZM80 66L81 68L79 68L83 73L85 74L81 69L81 68L85 70L85 69ZM147 67L147 69L149 70L148 67ZM190 67L196 72L196 71L192 67ZM136 68L136 70L140 70L139 68ZM142 68L143 70L144 70L144 68ZM121 70L123 72L124 71ZM154 70L156 72L157 71ZM208 70L214 84L222 86L232 76L212 76L214 72L209 74ZM97 72L97 73L101 77L101 75ZM56 73L57 75L59 74L59 73ZM124 73L130 78L130 77L128 75L129 74ZM248 73L248 75L250 75L250 73ZM35 76L36 80L30 79L32 83L39 79ZM38 76L38 78L40 79L44 77L40 78L40 76ZM51 76L50 79L53 77L53 76ZM225 76L225 78L227 78L226 76ZM244 76L243 78L246 78L245 76ZM57 77L56 79L58 79L59 77ZM82 77L84 79L85 78ZM25 78L25 80L27 79L27 78ZM89 78L89 81L91 82L91 81ZM240 78L241 80L242 80L242 79ZM39 80L35 85L40 93L45 87L42 82L42 89L40 83L38 87L44 80ZM161 80L162 82L163 82L163 80ZM143 81L134 85L136 87ZM148 81L145 84L153 85ZM186 81L186 83L188 83L187 81ZM236 81L236 83L233 83L233 85L234 86L238 83L238 81ZM159 82L157 91L166 88ZM187 84L189 88L191 86ZM33 85L36 90L37 90L35 86ZM53 85L53 87L55 86L55 85ZM96 85L95 87L97 87L98 85ZM145 85L141 87L144 87L145 85ZM160 85L159 87L161 87L161 85ZM122 86L117 99L132 90L125 86L124 92L126 88ZM117 87L118 90L120 91L121 91L121 89ZM128 87L128 89L130 90L130 88ZM215 87L216 95L223 88L220 90L223 95L211 145L218 142L224 87ZM96 88L97 91L98 90ZM162 88L169 96L173 93L166 88L167 94ZM190 88L189 96L195 95ZM46 89L44 94L51 89ZM51 90L50 94L52 91ZM63 90L64 93L65 94L64 91ZM147 90L150 91L153 90ZM76 91L78 93L77 95L79 95L79 92ZM114 91L113 94L117 94L115 91ZM137 91L137 97L133 97L134 93L131 102L130 97L130 101L127 99L129 103L123 109L123 114L127 110L129 126L129 122L139 134L148 134L143 137L148 138L166 130L162 129L166 123L169 125L166 121L170 122L167 116L172 112L159 98L167 101L158 93L158 98L155 94ZM145 91L143 94L151 94ZM153 91L153 92L156 93L155 91ZM191 91L192 94L194 94L193 91ZM127 92L125 95L126 96L128 92ZM220 92L216 102L221 105ZM54 93L54 96L57 97L55 96L57 93ZM139 94L138 96L141 95L141 94ZM172 94L169 100L165 96L168 101ZM7 95L3 99L3 101L5 101L8 97ZM49 95L50 98L54 98L54 96L51 97ZM58 95L59 106L56 99L51 99L80 137L79 141L89 136L65 104L61 109L64 102ZM70 96L70 99L72 99L71 96ZM80 96L79 98L82 99L81 96ZM142 96L130 107L135 101L151 98L162 108L162 124L164 107L158 99ZM59 98L58 99L60 102L62 102L62 100L59 100L60 98ZM83 99L83 107L88 106ZM174 99L172 104L176 100L176 99ZM115 100L115 106L112 103L111 107L118 107L120 101ZM193 102L195 103L196 102ZM216 103L216 113L218 113L217 106ZM61 104L61 107L62 107L63 104ZM126 104L125 106L126 109L129 106L128 104ZM194 104L194 106L196 106L195 104ZM103 105L102 106L102 111L104 106ZM218 106L219 108L220 108L220 106ZM133 107L129 108L129 113L131 113L130 110L134 107ZM172 107L173 110L175 110L174 108ZM195 107L195 113L197 114L196 111L196 107ZM116 108L114 121L107 116L113 126L119 121ZM86 109L86 111L88 112L87 114L90 114L87 110ZM111 110L108 112L109 113L111 110ZM119 110L119 116L120 112ZM113 111L112 115L114 113ZM207 111L207 113L209 112L209 111ZM211 112L211 117L207 115L209 118ZM128 114L130 120L130 121L132 121L131 117L131 114ZM173 114L173 121L175 121L175 115ZM123 115L125 117L127 122L126 117L126 115ZM120 116L120 121L121 118ZM194 116L193 120L197 118ZM216 116L219 119L216 127L221 117ZM89 117L90 120L93 120L91 117ZM116 120L117 121L115 124L117 124L118 121ZM91 122L92 124L94 124L94 122ZM112 122L113 125L114 125L114 122ZM131 122L133 123L134 122ZM192 122L187 132L194 133ZM134 124L134 126L141 131L144 131L143 129L140 129ZM158 124L156 130L145 132L156 131L161 127ZM173 124L170 128L170 131L167 130L167 133L162 138L164 138L172 130L174 124ZM93 125L94 128L96 128L95 126ZM122 125L124 126L125 125ZM192 125L191 128L192 129L193 126ZM195 126L195 130L196 127ZM207 126L209 127L210 126ZM118 127L117 131L119 132L121 130ZM124 127L119 134L117 129L114 131L122 140L126 132L120 135L125 130L140 143ZM129 127L130 129L131 129L131 127ZM217 127L218 129L215 131L218 130L217 133L219 132L219 127ZM68 129L68 131L75 139L73 135ZM132 129L131 131L136 133L133 130ZM99 130L96 132L101 141L106 139ZM174 130L173 134L175 131ZM205 130L204 137L209 135ZM205 131L205 132L208 133L207 131ZM90 134L89 135L93 138L94 138ZM99 134L100 137L101 137L101 134ZM137 134L139 136L140 135ZM158 134L156 137L158 137L158 135L160 136L160 134ZM172 134L170 137L171 138L173 134ZM151 135L151 138L156 138L153 137ZM215 135L213 139L217 139ZM17 137L17 139L21 139L21 138ZM86 137L83 142L88 140L95 157L87 151L102 181L99 161L95 162L98 159ZM208 137L203 138L203 143L206 140L207 143ZM157 139L155 143L141 140L142 145L162 141ZM71 142L71 147L72 144ZM185 142L186 144L188 144L188 142ZM83 143L82 145L86 149L84 144ZM157 144L157 145L160 146L160 144ZM204 144L204 146L206 147L205 144ZM150 145L150 147L152 147L151 150L153 150L153 148L152 145ZM153 145L155 146L156 145ZM184 145L183 147L185 147L186 145ZM143 146L142 148L144 151L144 146ZM71 148L72 157L73 158L74 157L72 154ZM181 147L179 152L183 153ZM210 147L208 157L213 152L201 176L216 150ZM111 149L108 151L112 151L111 149ZM205 149L205 151L207 150L207 149ZM55 150L54 152L56 152L57 150ZM143 151L143 157L144 153ZM52 152L53 154L51 155L53 155L54 153ZM111 153L112 157L112 158L114 158L113 154ZM177 155L176 156L176 160L174 160L175 162L177 162L176 161L179 158L179 155ZM51 156L51 160L52 160L53 157ZM205 158L203 163L206 162L207 158ZM73 159L74 162L75 161ZM113 161L113 162L116 164L115 161ZM126 161L125 162L125 164L127 164L133 171L133 169ZM164 161L163 163L165 164L165 161ZM46 167L45 169L46 170L47 167ZM114 167L116 168L117 167ZM201 167L200 169L201 170L202 167ZM8 168L4 169L4 172L6 172L9 169L9 168ZM172 169L174 170L175 169ZM60 174L64 177L62 177L65 183L68 182L67 184L69 187L71 186L71 184L68 184L69 182L63 177L64 177L62 174ZM17 175L24 182L42 186ZM101 181L101 183L103 183L102 181ZM198 181L192 186L194 186L198 181ZM71 186L71 188L76 190L76 192L79 192L79 190L76 190L76 188L74 189L73 186ZM112 186L114 187L115 186ZM190 186L188 190L185 194L191 187ZM80 192L80 194L82 194L82 192ZM84 193L83 195L85 195L85 193ZM89 195L90 197L92 197L92 195ZM125 197L127 213L134 212L129 210ZM145 205L147 206L148 205ZM162 205L162 210L163 207ZM134 206L135 210L136 210L137 206ZM226 206L227 208L229 208L228 206ZM156 208L149 210L156 210L156 208ZM141 209L141 211L148 211L148 210ZM122 210L123 213L124 212ZM136 211L138 212L141 211ZM222 224L224 225L227 224ZM196 233L194 238L197 234ZM222 235L224 236L225 235ZM193 238L192 240L194 240L194 238ZM185 249L184 251L185 252L186 249Z" fill-rule="evenodd" style="fill:#565755;"/><path d="M46 23L46 25L48 24L48 23ZM208 27L208 29L210 29L210 27ZM110 30L110 32L112 31L112 30ZM111 33L114 38L117 33ZM194 33L194 36L196 35L195 33ZM120 35L116 37L120 37L120 35ZM121 35L123 36L126 35ZM126 35L126 36L133 37L134 35ZM162 35L162 37L165 38L163 35ZM164 43L164 44L168 47L165 43ZM77 52L70 54L78 63L74 59L74 54L78 57ZM170 53L170 56L172 56L173 54ZM177 53L179 75L179 68L183 67L179 67ZM181 55L180 57L182 58L181 56L184 55ZM184 56L184 60L185 57ZM75 58L79 60L80 59L81 62L83 61L81 58ZM82 63L80 65L92 75ZM117 65L120 74L129 73L121 72ZM79 67L78 69L86 77L86 73L82 69L80 70L80 67ZM153 68L153 71L155 70L154 68ZM143 69L138 71L143 71L143 69ZM81 70L82 73L85 74L82 70ZM137 70L132 72L137 72L137 70ZM144 70L146 71L147 70ZM157 71L159 72L160 71ZM221 74L218 76L222 75L224 87L224 74ZM87 75L87 78L89 78L89 81L91 82L90 77ZM154 75L154 80L155 77ZM126 76L126 78L129 78L130 80L131 78ZM212 76L212 79L213 79L216 76ZM82 77L84 79L85 78ZM226 79L226 81L228 81L228 79ZM31 80L31 82L33 83L34 81L32 82ZM143 81L139 83L143 83L143 81ZM186 81L186 83L188 83L187 81ZM214 81L214 84L216 84L215 81ZM92 82L92 84L94 85L95 85ZM146 83L148 84L149 83ZM135 85L135 87L137 87L136 85ZM145 85L141 87L144 87L145 85ZM126 87L124 91L127 88L127 87ZM159 87L156 88L156 90L158 90L159 87ZM223 87L223 92L224 89ZM96 88L97 91L98 90ZM191 88L191 91L193 91L193 88ZM127 90L126 93L127 91L131 93L130 90ZM147 90L150 91L153 90ZM114 91L113 94L117 94L115 91ZM145 91L145 94L147 94L148 92ZM153 91L153 92L156 93L155 91ZM140 93L123 109L126 114L129 105L129 126L139 133L155 135L166 130L161 129L166 120L170 122L168 106L165 102L167 111L159 98ZM157 93L158 96L161 97L161 96L158 93ZM191 94L193 95L194 94ZM142 96L130 107L135 101L151 98L162 108L162 124L164 107L158 99ZM165 96L168 101L170 100L170 99L169 100ZM162 98L162 99L166 101L166 100ZM222 100L222 106L223 102ZM55 104L55 105L59 107L59 106ZM133 107L129 108L129 113L131 113L130 110L134 107ZM172 107L173 110L174 110L174 107ZM221 109L221 116L223 116L222 109ZM111 110L108 112L109 113L111 110ZM119 110L119 116L120 112ZM64 113L80 135L79 141L84 138ZM128 114L130 120L130 121L132 121L131 117L131 114ZM72 115L75 121L78 124L78 123L73 115ZM114 115L114 121L107 116L113 126L118 124ZM123 115L125 117L127 122L126 117L126 115ZM120 116L120 121L121 118ZM173 119L173 121L175 121L175 119ZM215 119L215 123L216 120ZM112 122L113 125L114 125L114 122ZM116 122L115 124L117 124L117 122ZM129 122L128 124L130 124L130 122ZM131 122L133 123L134 122ZM166 122L167 124L168 124L168 122ZM191 123L191 127L192 124ZM134 124L134 126L141 131L144 131L143 129L140 129ZM158 124L156 130L145 132L156 131L161 127ZM79 125L79 127L83 132L81 128ZM193 125L193 129L194 126ZM125 127L132 138L140 139ZM129 127L130 129L131 129L131 127ZM170 127L170 130L172 129L171 127ZM214 127L213 130L215 131L215 127ZM118 128L117 131L119 132L121 130L120 128ZM68 129L68 131L75 139L73 135ZM116 129L122 140L125 134L120 136L122 133L118 134ZM132 129L131 131L136 133L133 130ZM192 129L189 131L192 133ZM218 129L219 132L220 132L220 129ZM167 130L167 134L170 132L169 130ZM98 131L102 136L102 135L100 131ZM84 133L87 136L88 135ZM137 134L139 136L140 135ZM158 134L156 137L158 137L158 135L160 136L160 134ZM146 135L143 137L148 138ZM151 135L151 138L156 138L153 137ZM164 135L162 138L164 138L166 135ZM101 137L102 140L103 139ZM87 139L86 141L88 140L94 152L94 150L89 139ZM157 139L156 142L156 143L159 143L158 141L161 139ZM141 140L142 144L144 141L154 144ZM203 140L203 144L204 141ZM71 142L71 147L72 144ZM83 143L82 145L86 149L84 144ZM212 143L211 145L215 145L215 144ZM71 148L72 157L73 158L74 157L72 154ZM142 147L143 149L144 149L144 147ZM209 148L210 150L211 150L211 148ZM214 149L214 151L211 152L214 152L216 149ZM87 151L102 181L97 160ZM143 151L143 157L144 153ZM52 157L51 159L52 160L53 157ZM73 159L74 162L75 161ZM46 167L45 169L46 170L47 167ZM101 181L101 183L103 183L102 181ZM198 181L192 186L194 186L198 181ZM190 186L188 190L185 194L191 187ZM71 187L73 189L74 188ZM80 192L80 194L82 194L81 192ZM122 210L123 213L124 212Z" fill-rule="evenodd" style="fill:#3c0e04;"/><path d="M46 23L46 25L48 24L48 23ZM208 27L208 29L210 29L210 27ZM110 30L110 32L112 31L112 30ZM111 33L114 38L117 33ZM194 33L194 36L196 35L195 33ZM120 35L116 37L120 37L120 35ZM121 35L123 36L126 35ZM126 35L129 36L133 35ZM162 35L162 37L165 38L163 35ZM164 43L164 44L168 47L165 43ZM77 52L71 57L82 62L80 58L74 59L74 54L78 57ZM170 53L170 56L172 56L173 54ZM177 53L179 75L179 68L183 67L179 67ZM181 55L180 57L182 58L181 56L184 55ZM184 56L184 60L185 57ZM82 63L80 65L92 75ZM117 65L120 74L129 73L121 72ZM153 68L153 71L155 70L154 68ZM143 69L138 71L143 71L143 69ZM137 70L132 72L137 72L137 70ZM144 70L146 71L147 70ZM221 74L218 76L222 75L224 87L224 74ZM126 76L129 79L131 79L131 78ZM212 76L213 79L216 76ZM226 79L226 81L228 81L228 79ZM31 80L31 82L33 83L34 81L32 82ZM186 81L186 83L188 83L187 81ZM214 81L214 84L216 84L215 81ZM139 82L141 83L144 82ZM146 83L148 84L149 83ZM126 87L124 91L127 88L127 87ZM223 87L223 92L224 89ZM191 88L191 91L193 91L193 88ZM127 90L126 92L129 91L130 90ZM191 94L193 95L194 94ZM150 95L150 96L153 97L152 95ZM135 98L131 104L136 99L136 98ZM148 99L148 103L147 100L141 101L134 106L133 116L134 123L145 130L158 125L163 112ZM222 100L222 106L223 102ZM160 101L160 102L163 104L162 101ZM164 105L164 107L166 110L166 108ZM159 107L160 111L161 109ZM128 108L128 112L129 109ZM221 109L221 117L222 112ZM134 112L134 116L135 113ZM165 112L165 114L167 113L167 112ZM66 114L81 138L85 137ZM72 115L75 121L78 124L78 123L73 115ZM128 116L128 120L129 117ZM165 117L165 119L167 120L167 117ZM215 119L215 123L216 120ZM129 120L136 131L156 133L140 131ZM164 121L161 127L157 131L156 130L157 132L160 131L164 127L164 123L166 121ZM191 123L191 127L192 124ZM79 125L79 127L83 132L81 128ZM193 125L193 129L194 126ZM119 128L120 131L121 130ZM126 129L127 131L132 136L137 139L138 138L133 136ZM192 129L192 131L189 132L193 132L193 129ZM218 129L219 132L220 132L220 129ZM98 131L102 136L102 135L100 131ZM169 131L167 135L170 132L170 131ZM166 135L162 138L164 138L166 135ZM101 137L102 140L103 139ZM87 139L86 141L88 140L94 152L94 150L89 139ZM141 140L142 144L143 144L144 140ZM153 142L152 144L154 144L154 142ZM146 143L149 144L152 143ZM212 143L212 145L215 145L215 144ZM214 149L214 151L211 152L214 152L216 149ZM71 187L73 189L74 188ZM80 192L80 194L82 194L81 192Z" fill-rule="evenodd" style="fill:#81807d;"/><path d="M178 54L177 62L179 60ZM70 55L70 56L74 59L71 55ZM178 63L178 65L180 65L179 63ZM81 64L80 66L82 66L82 64ZM86 67L85 70L86 68L89 72L87 67ZM119 69L120 74L123 73ZM223 74L223 85L224 76ZM126 87L124 91L127 88L127 87ZM150 95L150 96L153 97L152 95ZM135 98L131 104L136 99L136 98ZM148 99L148 103L147 100L141 101L134 106L133 116L134 123L145 130L158 125L163 112ZM160 101L160 102L163 104L162 101ZM164 105L164 107L166 110L166 108ZM159 107L160 111L161 109ZM128 108L128 112L129 109ZM134 112L134 116L135 113ZM165 112L165 114L167 113L167 112ZM128 116L128 120L129 117ZM165 117L165 119L167 120L167 117ZM129 120L136 131L156 133L140 131ZM164 121L161 127L157 131L156 130L157 132L160 131L164 127L164 123L166 121ZM119 128L120 131L121 130ZM126 129L126 130L131 135L131 133ZM133 136L136 139L138 139L135 136ZM141 140L142 144L143 144L144 140ZM146 143L149 144L152 143Z" fill-rule="evenodd" style="fill:#6a1c0a;"/><path d="M178 54L177 62L179 60ZM70 55L70 56L74 59L71 55ZM178 63L178 65L180 65L179 63ZM81 64L80 66L82 66L82 64ZM86 67L85 70L86 68L89 72L87 67ZM119 69L119 71L122 73L123 73ZM223 74L223 85L224 76ZM126 87L124 91L127 88L127 87ZM143 100L143 101L147 102L146 100ZM142 101L135 106L133 116ZM154 103L156 107L157 106ZM142 104L136 110L136 118L143 125L133 118L142 128L148 129L144 125L156 122L158 116L151 104ZM158 108L158 121L149 129L157 125ZM158 129L157 132L161 130L161 129ZM142 132L143 134L145 134L144 132ZM151 133L153 134L154 133ZM146 143L149 144L152 143Z" fill-rule="evenodd" style="fill:#9d2a06;"/><path d="M178 54L177 62L179 60ZM70 55L70 56L74 59L71 55ZM178 63L178 65L180 65L179 63ZM81 64L80 66L82 66L82 64ZM86 67L85 70L86 68L89 72L87 67ZM119 69L119 71L122 73L123 73ZM223 74L223 85L224 76ZM126 87L124 91L127 88L127 87ZM144 104L136 117L146 125L152 124L149 123L155 122L155 112L149 106L157 113L154 106ZM143 105L141 107L142 108L144 106ZM139 108L138 109L138 113L140 109ZM133 110L133 115L134 112ZM156 115L156 119L157 116ZM138 116L138 118L140 119L139 116ZM136 121L136 122L140 125L137 121ZM146 143L149 144L152 143Z" fill-rule="evenodd" style="fill:#cc4203;"/><path d="M178 54L177 62L179 60ZM70 55L70 56L74 59L71 55ZM178 63L178 65L180 65L179 63ZM81 64L80 66L82 66L82 64ZM86 67L85 70L86 68L89 72L87 67ZM119 69L119 71L122 73L123 73ZM223 74L223 85L224 76ZM126 87L124 91L127 88L127 87ZM143 108L139 112L140 119L151 121L154 114ZM146 143L149 144L152 143Z" fill-rule="evenodd" style="fill:#f57e08;"/><path d="M178 54L177 62L179 60ZM70 55L70 56L74 59L71 55ZM178 63L178 65L180 65L179 63ZM81 64L80 66L82 66L82 64ZM86 67L85 70L86 68L89 72L87 67ZM119 69L119 71L122 73L123 73ZM223 74L223 85L224 76ZM126 87L124 91L127 88L127 87ZM142 110L144 118L151 116L149 111ZM146 143L149 144L152 143Z" fill-rule="evenodd" style="fill:#9b9a98;"/><path d="M178 54L178 60L179 56ZM142 110L144 118L151 116L149 111ZM146 143L149 144L152 143Z" fill-rule="evenodd" style="fill:#9c6d56;"/><path d="M178 54L178 60L179 56ZM142 110L144 118L151 116L149 111Z" fill-rule="evenodd" style="fill:#fcc13a;"/><path d="M178 54L178 60L179 56ZM145 112L146 117L149 116Z" fill-rule="evenodd" style="fill:#bdc2c2;"/><path d="M145 112L146 117L149 116Z" fill-rule="evenodd" style="fill:#fdda7e;"/><path d="M145 113L145 116L148 116L148 113Z" fill-rule="evenodd" style="fill:#fbefd3;"/></svg>
