<svg xmlns="http://www.w3.org/2000/svg" width="256" height="256" viewBox="0 0 256 256"><path d="M0 0L0 256L257 256L257 0ZM0 1L0 257L1 128Z" fill-rule="evenodd" style="fill:#1c1107;"/><path d="M13 0L13 2L17 10L17 7L15 2L15 0ZM128 0L117 7L112 16L130 4ZM233 0L232 2L234 2L234 0ZM236 0L233 12L236 4L240 5ZM232 4L230 10L227 13L229 13L232 10L232 9L233 4ZM130 8L122 14L122 21L117 16L107 21L110 39L115 35L109 43L111 54L108 49L101 54L108 45L102 46L109 40L103 37L97 56L101 54L94 57L93 64L97 60L89 75L95 71L89 78L91 88L109 72L109 65L112 70L110 61L120 54L112 62L113 75L124 75L126 90L126 83L123 85L121 78L121 82L127 94L117 85L121 95L110 100L105 113L106 108L98 111L97 140L91 137L97 147L99 142L99 151L107 155L104 157L110 152L99 143L107 144L106 141L111 153L115 152L111 158L113 163L120 165L119 162L128 159L124 170L126 177L131 177L134 162L135 170L138 166L132 157L142 164L143 158L150 155L156 136L156 140L160 137L162 141L165 133L163 125L156 124L155 129L156 119L164 119L160 108L153 115L150 99L137 90L133 95L135 85L140 82L132 90L128 87L131 89L136 73L139 76L147 71L151 42L148 43L143 34L149 38L153 32L152 25L145 25L145 17L140 15L145 18L137 30L142 34L131 28L130 41L130 25L137 29L138 18L131 22ZM17 10L15 14L23 11ZM121 10L120 12L122 12L122 10ZM105 13L94 23L111 17ZM233 13L226 18L225 24L230 23L225 31L229 31L233 17L235 21ZM48 14L48 18L49 15ZM22 15L18 16L22 37L18 34L28 53L36 45L45 46L31 35ZM152 16L150 18L155 20L157 19L166 23L166 22L159 18L155 19ZM90 20L77 33L84 32L67 44L56 37L65 46L78 37L66 51L96 34L85 30L93 25ZM150 20L151 24L153 22L152 20ZM233 21L230 32L234 34ZM155 23L155 25L158 26L158 24ZM167 23L167 25L172 27L168 23ZM50 25L50 28L52 27L52 25ZM200 26L198 30L198 31L201 27ZM225 26L222 30L223 32L224 29L227 29L227 26ZM158 27L155 29L158 33L162 27ZM52 28L52 31L56 35L56 34L53 28ZM103 28L99 29L102 36L108 32ZM168 29L163 39L167 37L191 52L184 40L177 37L181 35L194 49L184 36ZM34 31L34 33L38 36L35 32ZM103 31L102 33L103 34L105 31ZM196 32L194 35L195 36L198 32ZM27 33L26 35L28 35L28 33ZM225 33L225 35L228 35L228 33ZM155 34L156 36L158 36L157 34ZM95 35L94 37L96 38L96 35ZM153 35L157 45L156 48L152 46L160 57ZM219 36L208 49L211 50L201 56L208 58L204 58L206 63L204 58L191 56L195 63L190 56L170 44L164 42L162 46L168 51L165 55L167 57L169 54L169 66L171 60L179 66L170 67L170 83L174 82L172 88L174 93L177 90L178 104L178 97L180 103L184 99L181 109L193 87L191 78L193 81L195 76L200 75L195 65L199 64L197 68L201 67L200 73L203 71L202 75L213 83L207 73L209 68L202 65L219 51L213 50L220 49L226 36ZM22 37L21 38L21 40L23 38ZM81 37L78 42L83 38L83 37ZM150 37L150 40L153 41L154 39L151 39ZM191 37L191 41L192 38ZM227 37L220 51L225 55L229 40L234 41ZM103 39L104 42L106 42L106 40ZM130 41L130 46L131 43ZM20 42L20 43L23 50L22 44ZM94 42L77 50L61 66L70 56L56 56L43 46L41 52L36 48L43 58L55 63L48 73L44 70L39 82L58 73L71 96L70 108L78 117L75 103L85 81L89 83L88 67L82 64L89 65L86 61ZM84 43L83 45L87 44L87 43ZM111 44L111 48L112 45ZM130 46L145 58L144 53ZM65 47L62 51L64 51L66 47ZM18 48L18 50L20 50L20 53L20 55L22 55L21 51ZM164 49L164 52L165 52L166 49ZM229 49L228 53L229 54L230 50ZM45 50L48 58L53 56ZM162 53L161 56L166 64L167 63L162 56L164 54ZM108 54L102 64L110 60ZM55 56L54 59L57 58L56 56ZM155 56L156 61L152 59L157 63ZM170 56L169 57L169 61L171 57ZM88 57L88 62L90 62L91 58L89 59ZM0 60L0 62L2 63L2 61ZM253 60L255 62L256 61ZM151 61L155 69L151 68L151 72L164 85L161 70L166 75L168 89L168 76ZM131 62L131 63L135 66L132 62ZM161 62L158 64L162 66ZM216 63L215 65L216 66L218 65L218 63ZM57 64L55 68L57 68L59 64ZM149 64L149 68L150 68L151 64ZM0 65L0 82L2 77L15 76L5 66L8 71L1 72L5 70ZM99 65L95 70L97 71L101 65ZM163 65L163 68L168 74L168 71L166 70L167 68L165 69L165 65ZM251 65L247 71L253 66L252 71L232 84L219 83L227 103L237 101L236 92L238 97L241 92L242 101L254 93L251 82L256 86L253 71L256 72L256 65ZM44 66L43 69L45 69L46 67ZM77 66L74 69L75 70L78 66ZM179 66L180 68L182 68L181 66ZM158 67L157 70L158 72L160 72L161 69ZM194 67L194 71L195 68ZM213 67L212 69L215 73L215 68ZM205 69L205 70L208 72L208 69ZM71 71L69 75L72 72L72 71ZM84 71L84 75L85 72ZM198 71L192 74L192 75L196 74L198 72ZM7 72L8 74L10 74L9 72ZM210 72L213 78L217 82L217 81L212 72ZM108 73L107 75L102 77L102 79L109 75L109 73ZM146 73L146 77L147 74ZM110 75L93 88L97 98L114 82L107 91L114 87ZM150 75L147 83L163 95L166 89L160 85L162 82ZM217 75L217 77L219 80L219 78ZM93 76L93 80L94 77ZM247 76L248 77L255 83L249 76ZM7 77L2 90L4 87L8 90L11 85L9 91L15 93L20 83L12 79L18 80L16 77ZM156 77L156 78L159 80L158 77ZM225 77L225 81L227 82L228 80ZM116 78L116 79L120 81L120 79ZM19 80L20 83L25 83L22 80ZM37 82L24 85L19 100L29 101L33 91L35 95L44 86L46 90ZM21 84L20 88L19 90L21 90L21 88L24 84ZM213 84L218 94L208 122L214 121L210 129L215 126L219 98L224 94ZM222 84L223 87L226 87L224 84ZM236 84L235 86L237 87L238 86ZM174 85L173 89L176 89L176 88ZM85 86L84 91L86 88ZM233 86L235 91L236 91L236 89ZM34 87L33 90L36 89L35 87ZM55 88L55 90L57 89L57 88ZM88 88L86 99L91 92ZM139 88L139 90L144 95L146 95L150 96L147 93L142 93L142 90ZM185 88L185 92L186 89ZM53 89L50 92L51 93L54 89ZM58 89L58 90L61 91L60 89ZM170 89L173 100L170 103L174 101L174 105ZM179 89L178 91L180 92L180 89ZM197 89L194 95L201 89ZM3 90L7 96L14 97ZM82 90L83 93L82 96L80 95L81 99L84 93ZM104 90L104 92L101 97L106 92L105 90ZM153 90L153 91L160 97L154 90ZM18 91L17 93L19 94L19 91ZM34 91L34 95L35 92ZM62 91L51 97L50 115L47 108L53 118L53 114L63 118L62 95L65 103L68 100ZM25 92L26 95L27 95L28 92ZM115 92L111 97L119 94ZM199 92L193 102L202 115L208 106L205 95ZM39 94L33 106L37 104L37 118L39 115L40 122L44 119L45 127L49 122L41 115L43 96ZM184 94L183 96L184 97L185 94ZM49 95L47 99L48 101L50 95ZM92 95L88 100L90 107L89 102L84 110L87 116L83 113L88 123L90 107L93 101L96 102ZM223 95L224 101L225 101L225 98ZM20 96L20 98L23 99L27 99L22 96ZM39 96L38 102L39 103L39 100L41 99ZM161 96L159 98L161 99L162 97ZM167 96L164 99L165 101L168 96ZM192 96L191 103L193 108L193 96ZM208 96L208 100L209 97ZM27 97L27 100L29 100L29 98ZM185 97L185 99L187 100L187 97ZM75 98L71 101L71 103L74 99L76 100L75 98ZM84 98L82 108L82 110L86 101ZM13 99L13 103L14 100ZM107 99L106 100L106 102L108 100ZM153 99L153 101L158 105L154 100ZM81 100L79 104L81 105L82 100ZM209 100L209 105L210 102ZM222 100L222 107L223 103ZM21 101L20 102L21 104L25 104L25 102L22 101ZM166 101L165 103L167 107L166 103L168 102ZM46 102L46 108L47 104ZM234 102L229 107L227 104L227 108L237 105ZM247 102L242 106L243 107L249 102ZM106 103L102 106L102 107L105 106L106 103ZM186 103L184 111L180 110L185 112L180 121L179 140L183 121L184 141L182 138L171 163L181 145L185 150L188 136L186 147L197 133L195 130L198 133L203 131L200 127L208 126L198 124L186 113ZM211 104L210 106L212 109L212 104ZM213 104L213 108L214 105ZM65 105L64 109L65 110L67 108ZM177 105L177 109L179 113L179 109ZM79 107L79 111L80 108ZM209 107L209 111L203 118L204 118L209 113L210 108ZM192 108L192 110L194 111L194 109ZM33 109L33 113L34 110ZM170 109L170 114L171 111ZM44 110L44 112L46 116L46 113ZM68 110L60 123L47 125L55 126L57 130L51 127L51 131L63 136L74 153L78 152L78 125L75 129L72 121L76 114ZM95 110L93 115L93 118L96 111ZM188 110L188 112L190 112L189 110ZM63 111L61 114L63 114L64 111ZM162 112L162 114L164 115L164 113ZM194 112L196 118L202 117ZM178 114L179 117L183 115ZM171 115L172 125L173 125L173 118ZM51 119L52 121L54 121L54 119ZM77 119L78 121L76 122L77 123L79 122L79 119ZM84 119L85 125L85 133L87 129L86 120ZM184 119L184 120L187 121L187 119ZM192 119L192 123L193 120ZM255 120L252 124L254 127L257 123L255 122L256 120ZM3 122L2 127L20 136L20 132L5 128ZM92 122L92 134L95 134L94 126L94 122ZM186 122L187 124L188 124L188 122ZM60 123L60 133L66 128ZM101 124L103 125L104 124ZM57 125L58 127L59 127L59 125ZM191 125L191 127L193 126L193 125ZM89 126L89 132L90 128ZM81 127L81 133L82 129ZM249 127L249 130L252 129L252 127ZM67 128L67 135L70 130ZM189 128L188 130L191 132L191 128ZM184 130L184 134L187 133L187 130ZM192 130L193 132L194 132L194 130ZM247 130L238 132L240 136L249 132ZM29 132L21 135L36 133ZM172 133L172 140L173 136ZM190 133L190 135L192 136L191 133ZM230 133L230 137L238 137ZM51 134L46 138L49 148L54 139L64 143ZM85 134L85 137L87 141L87 135ZM205 134L197 137L188 150L199 140L206 142ZM223 135L224 136L229 137L229 135ZM166 136L164 141L164 144L167 137ZM208 136L207 137L207 140L209 140L209 136ZM171 140L169 147L170 148L172 141ZM87 141L87 145L89 145L89 144ZM182 141L182 144L183 144L184 141ZM91 142L91 146L92 143ZM157 142L153 156L161 142ZM65 144L70 153L60 148L59 160L70 167L69 154L73 158ZM77 145L77 148L79 151L79 149ZM85 146L85 150L86 147ZM88 146L88 148L90 149L90 146ZM194 146L196 147L197 146ZM35 147L37 148L38 147ZM32 148L33 163L28 168L35 164L43 171L44 167L51 176L55 173L50 174L45 160ZM195 148L186 150L187 166L197 161ZM199 148L200 151L201 150ZM44 149L45 155L46 155L46 150ZM147 149L144 152L146 152L149 149ZM168 149L166 154L166 156L169 150ZM159 150L158 154L160 151ZM182 150L182 154L180 158L181 158L184 152ZM117 151L117 152L123 158L123 156ZM225 151L220 154L227 155ZM200 152L200 157L201 154ZM214 152L214 153L217 154L216 152ZM42 153L38 154L38 156L43 156L43 153ZM97 153L100 158L101 157L99 153ZM92 154L93 157L94 156ZM221 155L217 159L221 163L212 160L209 165L221 164L225 169L222 164L224 159L220 158L225 156ZM149 156L149 158L144 163L146 163L150 158ZM209 156L208 159L208 161L210 160L211 156ZM46 157L46 161L47 158ZM56 157L57 161L58 162L60 165L61 164L57 157ZM82 157L84 161L86 162L87 161ZM95 158L95 160L102 166L96 159ZM153 158L148 165L154 159L155 158ZM199 158L196 165L191 167L191 169L198 165L200 159ZM104 159L106 162L109 161L111 166L112 165L109 160ZM113 159L113 161L116 163L117 160L116 159ZM205 159L189 175L177 177L178 181L191 176ZM51 160L54 166L63 175L65 175L64 172L60 169L60 170L57 168L58 166L54 165L54 163ZM212 161L212 163L215 163L214 165L216 165L216 163L214 161ZM225 161L225 165L226 162ZM126 162L125 165L125 167L127 163ZM160 162L157 167L161 163L161 162ZM85 163L82 165L84 166L85 163ZM88 163L87 167L96 171ZM42 164L44 165L45 164ZM166 164L167 168L160 174L166 174L170 167ZM26 165L25 168L25 170L27 166ZM61 165L65 169L70 169L66 168ZM146 165L141 166L138 170L139 171L142 167L146 167L146 165ZM115 166L120 168L122 171L123 170L121 167ZM226 166L226 168L228 169L228 167ZM8 167L9 169L10 169L10 167ZM35 167L35 169L40 169L37 167ZM211 167L210 172L218 168ZM31 169L28 174L35 169ZM101 169L101 172L103 173L102 169ZM231 169L227 173L233 175ZM129 170L129 175L130 172ZM136 170L136 172L138 173L137 170ZM33 171L33 175L24 174L15 184L30 176L21 182L33 188L48 178ZM96 171L95 173L97 174L99 173L98 171ZM109 171L110 173L112 173L111 171ZM218 171L208 178L212 177L210 180L220 189L223 186L219 193L226 207L232 206L231 211L241 204L244 206L235 208L236 214L232 213L237 220L253 216L251 209L254 214L257 207L254 211L247 193L237 184L242 191L233 183L228 184L232 182L226 175L216 177L226 174ZM65 173L67 177L77 180L79 178L79 176L75 178L72 176L77 177L75 174L69 174ZM101 173L98 176L106 181L91 179L108 183L111 180ZM113 173L114 175L115 175L115 173ZM203 173L206 176L207 175L205 173ZM158 174L148 180L147 188L151 181L159 182L155 181ZM33 175L33 176L39 178L37 175ZM120 175L119 176L119 178L121 176ZM139 175L139 177L141 178L142 177ZM132 176L132 178L129 178L130 183L128 182L129 184L131 184L131 179L133 179L134 176ZM230 176L234 182L239 184L233 176ZM49 177L49 179L51 179L50 177ZM214 177L213 181L215 178ZM166 179L160 182L163 182L167 179ZM79 181L81 183L83 182ZM48 182L40 184L34 192L29 186L19 185L12 193L25 198L30 191L34 194L26 195L27 201ZM135 182L132 184L135 187L135 182ZM89 183L82 194L93 190L82 200L87 201L76 203L68 214L75 210L86 212L84 216L76 211L67 227L76 227L67 231L67 236L69 241L73 239L70 245L77 256L90 256L83 252L87 250L87 232L83 233L86 222L84 228L81 225L84 226L84 218L87 221L92 206L90 203L94 205L98 196L93 192L97 184ZM126 183L125 186L131 189ZM167 184L161 184L164 192L174 194L180 203ZM211 184L211 186L214 187L212 184ZM16 185L7 194L10 193L18 185ZM82 185L84 186L85 185ZM216 186L215 188L218 191L218 189ZM97 187L95 192L100 195L103 189ZM159 188L156 191L160 197L164 192ZM193 189L194 191L195 191L195 189ZM43 190L43 192L45 191L45 190ZM113 190L113 192L115 193L114 190ZM158 190L157 192L159 193L160 190ZM221 191L228 202L232 197L226 200ZM48 192L47 194L48 195L50 192ZM129 192L129 194L131 194L130 192ZM215 192L215 194L219 196L219 195L216 192ZM238 192L244 197L244 192ZM84 193L77 201L79 201L81 200L85 193ZM169 193L160 200L162 207L164 202L170 211L170 224L177 220L170 226L174 233L171 243L177 246L173 247L169 256L183 256L185 246L177 243L188 246L188 238L192 236L191 232L189 236L186 234L186 221L189 222L185 211L173 202ZM234 193L231 196L239 195ZM16 194L5 202L6 196L0 204L7 202L2 204L0 214L0 226L6 229L11 219L8 215L11 218L17 211L15 205L17 207L21 200L18 209L23 200ZM116 194L116 196L118 195L118 194ZM207 194L214 199L215 199L215 198L209 194ZM43 195L41 199L44 196L44 195ZM154 195L154 199L155 196ZM92 196L87 202L90 202L93 196ZM118 197L118 199L120 199L119 197ZM129 197L130 199L131 199L131 197ZM140 197L140 199L142 199L142 197ZM163 197L163 199L165 199L164 197ZM36 199L32 204L35 202L38 199ZM156 199L156 201L159 201L158 199ZM216 199L216 201L219 203L219 201ZM168 201L167 203L170 202L170 201ZM109 202L108 204L110 204L110 202ZM244 203L251 208L253 205ZM178 208L178 210L181 211L181 208ZM23 209L20 213L21 214L24 211L24 209ZM171 209L171 211L173 210L173 209ZM165 212L165 214L167 214L166 212ZM183 213L184 218L186 219L186 217ZM18 215L16 220L19 216ZM74 215L71 217L73 217L74 215ZM254 215L255 217L256 217L256 215ZM246 217L237 224L240 223L240 232L256 230L257 242L257 228L254 229L252 220L256 221ZM68 218L66 221L68 221L69 218ZM181 219L184 222L185 221L183 219ZM204 220L204 222L206 223L205 220ZM46 224L46 226L48 225L48 224ZM73 224L77 225L81 224ZM207 224L211 229L211 228ZM188 225L189 232L190 227ZM1 227L1 241L6 231ZM43 227L44 229L45 229L45 227ZM238 227L236 230L239 233L239 227ZM42 230L41 234L43 231ZM178 231L181 232L185 231ZM246 231L239 239L248 235ZM108 233L107 235L110 235L109 233ZM249 233L250 235L253 235L252 233ZM39 235L38 237L40 237L40 235ZM185 236L185 238L187 237L187 236ZM217 236L219 240L221 243L221 241ZM247 236L241 244L253 243L251 238L255 238ZM74 238L75 241L76 241L77 238ZM81 238L84 241L85 240L84 238ZM244 239L245 241L246 241L246 239ZM186 241L186 245L187 242ZM155 242L152 244L155 244L155 242ZM105 243L100 248L104 248L106 245ZM156 244L158 245L159 244ZM247 244L242 246L246 247L245 256ZM108 245L108 248L110 247L110 245ZM152 246L155 248L154 250L156 250L156 246ZM148 247L147 249L149 249L150 247ZM126 248L128 249L131 248ZM111 249L109 251L109 253L111 253L112 250ZM120 249L122 250L123 249ZM102 250L105 255L108 252ZM80 251L79 253L80 254L82 251ZM17 252L18 256L20 256L20 254ZM108 253L107 254L107 256L110 256L110 254ZM91 254L92 256L94 256L93 254Z" fill-rule="evenodd" style="fill:#4c3c2a;"/><path d="M129 18L123 29L129 25L126 32L118 33L122 32L122 35L116 37L112 46L121 53L113 63L114 72L121 72L120 77L125 73L127 94L117 85L121 95L110 100L105 113L106 108L98 111L97 140L91 137L97 147L99 142L99 151L107 155L104 157L110 152L99 143L107 144L106 141L111 153L115 152L111 158L113 163L120 165L119 162L128 159L123 166L126 168L127 162L127 176L131 177L134 162L135 168L138 166L132 157L142 164L143 158L150 155L156 136L156 140L160 137L162 141L165 133L163 125L156 124L155 129L156 119L164 119L160 108L153 115L150 99L137 90L133 95L135 85L140 82L132 90L127 84L130 90L136 73L141 75L147 70L145 63L142 66L142 56L139 59L140 55L135 57L136 60L130 56L130 50L135 51L130 48ZM20 20L21 23L22 22ZM230 22L229 25L229 28L231 23ZM22 24L23 27L25 34L27 34L27 33ZM27 35L26 37L29 38L28 42L31 40L29 35ZM33 35L34 38L35 37ZM93 35L81 41L79 43L91 37L93 37L93 35ZM166 35L168 37L169 36ZM221 38L218 40L219 41L223 38ZM224 39L221 44L218 50L221 47L225 39ZM36 40L31 41L37 45L33 47L41 45ZM134 40L134 45L136 43L135 40ZM26 41L25 45L27 42ZM109 42L109 44L111 47L111 43ZM179 42L181 44L182 43ZM93 43L91 49L75 57L78 62L73 59L66 72L64 69L61 78L78 66L67 77L68 85L68 80L62 79L65 79L69 94L72 92L70 103L74 94L78 101L83 84L88 83L85 64L80 64L86 62ZM90 44L87 46L89 46L92 44ZM164 44L163 46L165 45L169 53L170 53L166 45ZM31 45L29 47L31 49L32 46ZM215 45L213 48L216 48L216 45ZM139 46L138 48L141 49L140 46ZM110 47L110 49L112 52L112 48ZM134 48L136 51L140 53L139 49L138 51ZM41 49L41 51L43 51L42 49ZM126 50L122 53L124 53L126 50ZM217 50L207 56L208 61ZM221 50L221 52L223 52L222 50ZM39 52L39 53L46 59L40 52ZM111 52L113 59L118 55L113 57ZM107 53L92 75L98 80L92 87L99 83L99 75L101 77L109 72L108 61L102 68ZM148 53L148 57L149 54ZM170 54L171 60L178 65L170 68L170 83L175 80L176 86L179 80L178 91L187 71L189 79L192 76L193 67L187 69L189 63L184 65L185 60L180 60L183 68L185 66L184 75L177 63L179 59ZM144 55L145 58L148 59L148 57ZM178 55L178 57L180 57L179 55ZM211 55L210 57L211 58L213 55ZM46 58L50 62L50 61L53 63L54 62L47 58ZM131 58L129 63L136 66ZM193 58L195 63L198 64L194 58ZM145 59L145 61L147 61L146 59ZM173 59L173 61L175 60L175 59ZM154 60L154 61L157 62L156 60ZM61 62L58 64L61 64L61 62ZM109 62L109 64L111 65L110 62ZM169 62L169 65L171 65L170 62ZM203 62L205 63L206 62ZM193 63L192 65L195 65L194 63ZM63 64L62 66L64 67L65 65ZM59 65L57 68L56 71L60 66ZM198 65L197 67L198 68L199 67ZM141 66L139 69L141 70L141 68L143 69L143 67ZM153 66L155 70L158 74L158 72ZM96 67L95 69L93 68L94 70L97 68L97 67ZM104 68L103 70L106 69L106 68ZM254 68L257 73L252 72L255 74ZM177 69L178 71L180 71L179 69ZM151 70L151 72L153 72L152 70ZM181 70L179 73L183 76L182 71ZM59 71L61 73L62 72ZM91 71L91 73L93 72L93 71ZM101 71L100 73L103 72L103 71ZM1 72L1 81L5 77ZM154 72L154 73L161 79L155 72ZM159 72L160 74L162 75L161 73ZM131 73L135 78L136 78L135 75ZM7 74L6 76L9 75L9 74ZM107 74L108 79L93 89L96 86L96 95L113 82ZM91 76L91 83L94 82L94 80L92 80ZM151 76L153 78L154 77ZM167 76L167 84L168 79ZM13 77L15 78L16 77ZM47 77L46 79L48 79L48 77ZM162 77L158 88L160 83L154 82L159 83L156 79L148 79L162 95ZM113 78L113 82L114 79ZM116 78L116 79L120 81L120 80ZM133 78L133 80L135 80L134 78ZM245 78L236 83L238 89L234 86L238 95L241 90L241 95L246 96L243 100L255 91L250 79ZM255 78L252 82L254 87ZM5 79L4 84L7 82L16 89L19 85ZM187 79L179 93L186 88ZM114 82L114 84L107 91L114 87L115 83ZM71 83L69 87L71 87L72 84ZM122 83L122 85L124 86L123 83ZM228 83L232 86L223 89L225 95L235 92L236 100L235 89ZM14 84L16 85L15 87L16 87L18 84ZM171 84L171 86L173 85L173 84ZM192 84L187 89L191 91ZM25 85L21 92L30 92L30 96L34 87ZM42 85L40 89L41 90L44 85ZM166 85L166 87L165 89L165 91L163 90L163 94L168 88L166 87L167 85ZM74 87L74 89L72 88L73 90L76 91L74 90L76 87ZM85 87L84 90L84 92L86 88ZM77 88L76 91L78 93L79 92ZM139 88L139 90L144 95L146 95L150 96L147 93L142 93L142 90ZM26 89L26 90L29 91L28 89ZM66 89L66 91L68 92L67 89ZM88 89L89 93L90 91ZM11 90L11 91L16 93L13 90ZM82 90L82 95L81 100L84 93ZM104 90L104 92L101 97L106 92L105 90ZM153 90L153 91L160 97L154 90ZM188 90L186 94L183 98L185 101L185 97L188 92L189 95L189 90ZM36 91L35 92L35 94L37 92ZM217 91L217 93L219 96L219 94ZM220 91L220 96L222 96L222 95ZM115 92L111 97L119 94ZM199 92L193 102L202 115L208 106L205 95ZM55 93L49 102L49 115L59 118L64 104L63 94ZM8 94L9 96L11 96L10 94ZM181 94L180 104L184 94ZM22 95L23 97L27 98L27 96ZM92 95L92 97L96 103L96 101L93 95ZM179 95L176 98L176 103L178 102L178 96L180 97L179 95ZM96 96L97 98L98 98L98 96ZM161 96L159 98L161 99L162 97ZM170 96L170 99L173 99L171 96ZM187 96L187 101L188 98ZM192 96L192 100L193 97ZM208 96L208 100L209 97ZM86 97L86 99L88 99L87 97ZM228 97L228 99L231 98L231 97ZM90 98L89 100L91 102L91 98ZM165 98L164 102L166 99ZM233 98L227 102L228 102L235 99ZM13 99L13 103L14 100ZM107 99L106 100L106 102L108 100ZM153 99L153 101L158 105L154 100ZM81 100L79 104L81 105L82 100ZM85 100L84 101L84 105L86 101ZM191 100L191 104L193 108L193 104ZM209 100L209 105L210 102ZM215 100L215 103L218 103L219 100L217 103ZM73 101L74 103L72 103L72 108L74 109L75 107L75 112L77 108L75 106L75 101ZM166 101L165 103L167 106L167 101ZM33 102L33 106L34 103ZM39 102L38 104L42 104L42 102ZM92 102L89 108L87 114L90 114L89 110L92 105L92 108L94 104ZM247 102L246 104L249 103L249 102ZM46 103L46 107L47 104ZM106 103L102 106L102 107L105 106L106 103ZM187 104L187 109L181 111L183 113ZM213 104L213 108L214 105ZM215 104L215 111L218 109L212 122L218 112L219 104ZM244 104L242 107L244 107L245 105ZM38 105L40 115L42 105ZM177 105L177 109L179 113L179 109ZM39 107L39 109L41 108L41 107ZM79 107L79 111L80 108ZM209 107L208 112L210 110ZM192 108L193 111L194 110ZM69 110L66 116L69 119L66 117L55 124L58 130L57 126L65 119L69 122L70 117L74 121L76 118ZM95 110L93 115L93 118L96 111ZM162 112L162 114L164 115L164 113ZM194 112L197 116L196 117L200 117L197 115ZM68 113L69 116L72 116L72 114ZM78 113L78 117L79 114ZM178 114L179 117L183 115ZM184 113L179 139L182 121L187 116ZM189 113L194 121L191 124L195 122L199 126ZM207 113L206 114L206 116L208 114ZM171 115L172 125L173 125L173 118ZM41 116L40 120L45 117ZM189 117L185 118L187 128L183 124L182 138L188 133L182 145L185 147L183 144L190 131L184 134L184 130L191 125ZM45 119L47 122L45 122L43 120L46 123L48 121ZM77 119L78 121L76 121L77 123L79 122L79 119ZM86 119L85 121L87 120L88 123L88 119ZM63 122L71 136L67 128L72 129L74 125L79 142L78 125L75 129L75 123L67 126ZM85 122L85 133L87 130L87 125ZM92 122L92 134L95 134L94 126L94 122ZM0 123L3 127L4 126L2 123ZM51 123L48 125L54 125ZM206 123L208 125L209 124ZM101 124L103 125L104 124ZM253 124L253 126L255 125L255 124ZM61 126L60 129L63 129L63 127ZM89 126L89 132L90 128ZM192 126L193 137L192 129L196 128ZM81 127L81 133L82 129ZM6 128L9 131L16 135L21 135L13 132ZM196 129L197 131L199 130L199 129ZM200 129L201 131L202 131L202 129ZM55 130L57 132L58 131ZM74 131L75 141L67 141L75 154L73 149L78 153L74 143L72 146L77 145ZM59 132L59 133L63 136L60 132ZM172 133L172 140L173 136ZM21 134L21 136L26 136L26 135ZM68 134L67 136L69 140L70 136ZM85 134L86 140L87 140L87 135ZM166 136L164 141L164 144L167 137ZM71 137L71 141L72 138ZM56 138L58 140L59 139ZM182 138L181 139L181 144L183 139ZM171 140L169 147L170 148L172 141ZM87 141L87 145L89 145L89 144ZM91 142L91 146L92 143ZM157 142L153 156L161 142ZM66 144L70 153L63 148L58 153L59 160L70 167L69 154L73 158ZM180 144L180 146L179 150L181 146ZM77 145L77 148L79 151L79 149ZM190 145L188 150L193 148ZM85 146L85 150L86 147ZM88 146L88 148L90 149L90 146ZM194 146L196 147L197 146ZM195 148L186 150L187 166L197 161ZM199 148L200 151L201 150ZM147 149L144 152L146 152L149 149ZM168 149L166 154L166 156L169 150ZM159 150L158 154L160 151ZM178 150L176 156L179 152L179 150ZM117 151L117 152L123 158L123 156ZM183 151L181 156L181 158L184 152ZM200 152L200 157L201 154ZM97 153L100 158L101 157L99 153ZM92 154L93 157L94 156ZM33 155L35 156L36 155ZM149 156L149 158L144 163L146 163L150 158ZM56 157L56 158L60 165L61 164L57 157ZM172 157L171 159L173 159L172 161L174 161L174 160ZM83 158L85 162L86 162L84 158ZM95 158L95 160L102 166L96 159ZM153 158L148 165L154 159L155 158ZM199 158L196 165L191 167L191 169L198 165L200 159ZM39 159L32 160L43 167L37 164ZM104 159L106 162L109 161L111 166L112 165L109 160ZM113 159L113 161L116 163L117 160L116 159ZM41 160L43 161L46 160ZM160 162L157 167L161 163L161 162ZM89 163L88 165L90 166L90 163ZM167 164L167 167L170 167L168 164ZM61 165L64 168L65 167ZM146 165L141 166L138 170L139 171L142 167L146 167L146 165ZM215 165L212 167L214 167L217 165ZM115 166L120 168L122 171L123 170L121 167ZM199 166L198 168L199 168L195 173L199 170L201 166ZM44 167L44 169L46 170L45 167ZM91 168L94 171L95 170ZM166 168L164 171L166 174L165 170L167 168ZM212 168L209 173L213 169L213 168ZM129 169L128 172L130 176L130 169ZM136 170L136 172L138 173L137 170ZM33 171L35 172L36 171ZM96 171L95 173L97 174L98 171ZM109 171L109 172L112 173L111 171ZM162 172L160 176L163 173L163 172ZM42 173L35 175L42 179ZM213 173L210 180L220 188L228 183L222 181L222 177L214 183L217 175ZM30 175L28 179L30 179L33 175ZM99 175L108 181L103 183L112 179ZM120 175L119 179L121 176ZM139 175L140 178L142 178L140 175ZM158 175L157 177L154 176L152 179L153 180L159 177L159 175ZM46 176L46 178L48 178L47 176ZM36 177L33 180L37 184L33 181L29 184L29 181L31 186L25 186L27 189L24 191L46 178L38 181ZM79 177L74 179L78 179L79 177ZM178 177L178 180L184 178ZM130 178L130 181L131 181L132 178ZM149 179L149 181L151 182L152 180ZM95 180L98 182L100 182L97 180ZM164 180L161 182L163 182L164 180ZM216 180L215 184L217 181ZM24 181L23 183L25 183L25 181ZM154 181L154 182L157 183L158 181ZM135 182L132 184L134 186L135 182ZM90 184L89 187L97 184ZM161 184L161 186L164 191L164 189ZM164 184L164 186L166 185L166 184ZM130 185L130 190L131 187ZM229 185L222 189L226 199L236 192ZM94 187L93 191L95 188ZM169 187L169 188L173 192L173 191L170 187ZM89 188L88 190L92 190L91 188ZM19 189L16 193L22 192L19 194L24 197L30 191ZM237 190L237 192L239 192L238 190ZM95 191L100 194L101 191ZM219 192L219 193L226 199L220 192ZM91 193L74 210L87 213ZM83 194L80 198L82 198L84 194ZM207 194L214 199L215 198L209 194ZM235 194L229 201L233 201L234 208L244 202ZM13 195L7 202L16 206L21 199ZM43 195L41 199L44 196L44 195ZM29 196L26 197L26 200L29 197ZM164 196L168 202L171 199ZM94 197L93 199L95 200L97 197ZM216 199L216 201L218 202L219 202ZM3 200L1 204L4 201L4 200ZM35 200L33 203L36 202L36 200ZM168 202L166 205L170 210L179 208ZM170 203L172 204L173 203ZM231 203L229 207L232 204L232 203ZM7 204L2 212L12 218L16 208L11 209L13 206ZM74 204L74 206L76 205L76 204ZM19 206L18 208L19 209L20 206ZM238 206L238 214L243 216L237 215L238 218L249 214L245 206ZM72 207L68 214L69 214L73 208ZM23 209L20 213L22 213L24 210ZM175 209L171 212L173 221L182 218L175 211L181 210ZM4 214L1 215L0 226L5 228L10 219ZM74 214L70 225L81 224L81 217L86 217ZM18 215L16 220L19 216ZM243 218L246 220L238 224L244 221L245 228L240 231L249 229L246 220L249 220ZM177 221L175 232L185 231L183 222ZM247 221L247 224L249 224L249 222ZM75 225L70 228L75 233L72 239L83 233L80 225ZM0 230L0 237L4 231ZM177 234L175 243L183 243L185 234ZM246 236L246 239L248 239L248 236ZM76 239L80 252L82 245ZM246 240L246 242L248 242L248 240ZM178 244L175 256L180 250ZM80 253L81 255L83 256L82 253Z" fill-rule="evenodd" style="fill:#71593d;"/><path d="M129 30L129 46L128 42L123 51L119 46L125 56L114 62L120 61L119 69L115 71L113 64L114 71L120 74L122 71L120 77L126 73L124 77L131 88L134 81L131 83L133 76L129 74L137 77L132 65L140 75L139 68L130 63L127 66L133 61ZM29 38L29 40L31 40L30 38ZM31 41L31 43L33 43L32 41ZM33 45L35 46L36 45ZM220 45L218 50L221 46ZM128 47L122 52L122 54L125 54L125 52L129 48ZM91 48L89 51L90 52L92 48ZM215 52L214 56L216 53ZM41 54L41 55L45 58L42 54ZM86 57L86 59L82 63L86 62L87 58ZM131 57L132 59L133 59L133 57ZM171 58L172 62L173 60ZM77 63L76 69L81 63ZM136 63L137 66L138 65ZM84 64L83 73L74 72L68 78L72 83L73 78L72 83L76 82L78 89L81 86L80 90L79 81L84 82ZM173 64L173 68L175 68L174 64ZM104 66L103 68L105 68L105 66ZM154 68L157 72L158 72L156 68ZM174 69L173 83L175 76L175 81L178 79ZM108 71L105 73L107 73L110 71ZM1 73L1 75L4 76L3 78L5 77L2 73ZM100 73L100 77L102 77L103 74L101 75ZM178 73L182 83L184 77L182 80ZM107 74L107 76L109 75L109 74ZM110 75L109 77L111 77L111 75ZM167 76L167 82L168 78ZM98 78L96 82L99 79L99 78ZM110 78L109 80L111 79L111 82L111 83L113 83L113 81ZM116 78L116 79L120 81L120 80ZM134 78L135 80L136 80L136 78ZM255 78L252 82L254 87ZM5 79L10 84L11 83L7 79ZM104 79L102 84L97 83L98 95L110 84L106 79L104 83ZM250 79L238 87L241 86L241 95L246 96L243 100L255 91L251 83L247 85ZM148 80L148 83L150 83L149 80ZM170 81L170 83L172 82L172 81ZM179 81L178 83L179 85L181 83L181 81ZM114 82L114 84L107 91L114 87L115 83ZM139 82L132 90L126 84L127 95L117 85L121 95L110 100L105 113L106 108L98 111L97 140L91 137L97 147L99 142L99 151L107 155L104 157L110 152L99 143L107 144L106 141L111 153L115 152L111 158L113 163L120 165L119 162L128 159L123 166L126 168L127 162L127 176L131 177L134 162L135 168L138 166L132 157L142 164L143 158L150 155L156 136L156 140L160 137L162 141L165 133L163 125L156 124L155 129L156 119L164 119L160 108L153 115L150 99L137 90L133 95ZM163 82L162 84L164 85L164 82ZM94 83L92 87L95 84L95 83ZM122 83L122 85L124 86L123 83ZM12 84L12 86L16 86L16 88L17 87L14 84ZM152 84L158 91L159 91L153 84ZM171 84L171 86L173 85L173 84ZM42 85L42 87L44 86L44 85ZM95 85L93 89L96 86L96 85ZM185 85L185 89L186 86ZM165 86L165 88L167 89L167 87ZM85 87L84 90L84 92L86 88ZM68 88L68 90L70 94L70 91ZM76 88L75 90L76 91L77 88ZM139 88L139 90L144 95L146 95L150 96L147 93L142 93L142 90ZM189 88L190 91L191 91L192 88ZM236 88L238 93L240 89ZM22 89L23 91L25 91L25 89ZM66 89L66 91L68 92L67 89ZM233 89L232 91L235 92L235 90ZM26 90L26 92L28 92L28 90ZM79 90L79 93L80 93L81 90ZM82 90L82 95L81 100L84 93ZM104 90L104 92L101 97L106 92L105 90ZM153 90L153 91L160 97L154 90ZM224 90L224 92L226 96L226 93ZM29 91L30 93L32 93L32 91ZM73 91L73 98L78 101L79 94ZM187 91L188 94L189 93ZM229 91L230 93L231 93L231 91ZM95 92L96 95L97 94ZM115 92L111 97L119 94ZM199 92L193 102L202 115L208 106L205 95ZM220 92L220 96L221 93ZM55 93L50 98L50 116L59 118L64 104L63 94ZM185 93L183 98L185 98L186 94ZM8 94L9 96L11 96L10 94ZM181 94L180 102L184 94ZM92 95L92 96L96 103L96 101L93 95ZM96 96L97 98L98 98L98 96ZM161 96L159 98L161 99L162 97ZM170 96L170 100L171 97ZM178 96L175 98L177 104L178 100ZM187 96L187 101L188 98ZM192 96L192 100L193 97ZM208 96L208 100L209 97ZM236 97L236 101L237 98ZM13 99L13 103L14 100ZM107 99L106 100L106 102L108 100ZM153 99L153 101L158 105L154 100ZM232 99L227 102L229 102L233 99ZM81 100L79 104L81 105L82 100ZM85 100L84 103L84 105L86 101ZM209 100L209 105L210 102ZM215 100L215 103L219 103L217 101ZM73 101L74 103L72 103L72 108L74 109L75 107L75 112L77 108L75 106L75 102ZM33 102L33 106L34 103ZM39 102L38 104L42 104L42 102ZM92 102L91 104L93 103L92 108L94 104ZM165 102L165 104L167 107L167 105ZM247 102L246 104L249 103L249 102ZM46 103L46 107L47 104ZM106 103L102 106L102 107L105 106L106 103ZM191 103L192 107L193 107L193 103ZM187 104L187 109L181 111L183 113ZM213 104L213 108L214 105ZM217 104L215 108L215 110L218 107ZM244 104L242 107L244 107L245 105ZM40 105L38 108L42 108L42 105ZM90 105L87 114L90 114ZM177 105L177 109L179 113L179 109ZM79 107L79 111L80 108ZM209 107L208 112L210 110ZM192 108L193 111L194 110ZM38 109L39 111L42 110L42 109ZM95 110L93 115L93 118L96 111ZM217 111L216 114L216 116L218 112ZM162 112L162 114L164 115L164 113ZM194 112L197 116L196 117L200 117L197 115ZM78 113L78 117L79 114ZM178 114L179 117L183 115ZM184 113L179 140L182 119L187 115ZM207 113L206 114L206 116L208 114ZM68 114L68 118L75 119ZM190 114L194 121L191 124L197 123ZM171 115L172 125L173 125L173 118ZM41 117L43 119L44 118ZM189 117L185 118L187 128L183 124L182 138L188 133L182 145L185 147L183 144L190 131L184 134L184 130L191 125ZM65 118L65 120L67 122L69 122L69 119L68 120ZM212 118L214 119L213 121L215 120L214 118ZM77 119L78 121L76 121L77 123L79 122L79 119ZM86 119L85 121L87 120L88 123L88 119ZM63 122L73 135L67 128L72 129L73 125L75 129L75 123L67 126ZM85 122L85 133L87 130L87 125ZM92 122L92 134L95 134L94 126L94 122ZM101 124L103 125L104 124ZM77 125L74 130L76 130L76 135L78 136L77 141L79 142L78 134L78 125ZM56 126L58 130L59 129L58 126ZM61 126L61 129L63 129L63 127ZM89 126L89 132L90 128ZM192 126L193 137L192 129L196 128ZM81 127L81 133L82 129ZM6 128L6 129L10 132L7 128ZM196 129L197 131L199 130L199 129ZM200 129L201 131L202 131L202 129ZM55 130L57 132L58 131ZM74 131L75 141L67 141L75 154L73 149L78 153L74 143L72 146L77 145ZM59 132L59 133L63 136L60 132ZM172 133L172 140L173 136ZM68 134L67 136L69 140L70 136ZM85 134L86 140L87 140L87 135ZM166 136L164 141L164 144L167 137ZM71 137L71 141L72 138ZM182 138L181 139L181 144L183 139ZM171 140L169 147L170 148L172 141ZM87 141L87 145L89 145L89 144ZM91 142L91 146L92 143ZM157 142L153 156L161 142ZM66 144L70 153L63 148L58 153L59 160L70 167L69 154L73 158ZM180 144L180 146L179 150L181 146ZM77 145L77 148L79 151L79 149ZM190 145L188 150L193 148ZM85 146L85 150L86 147ZM88 146L88 148L90 149L90 146ZM194 146L196 147L197 146ZM195 148L186 150L185 156L189 153L187 166L197 160ZM199 148L200 151L201 150ZM147 149L144 152L146 152L149 149ZM168 149L166 154L166 156L169 150ZM159 150L158 154L160 151ZM117 151L117 152L123 158L123 156ZM183 151L181 156L181 158L184 152ZM200 152L200 157L201 154ZM97 153L100 158L101 157L99 153ZM92 154L93 157L94 156ZM149 156L149 158L144 163L146 163L150 158ZM56 157L56 158L60 165L61 164L57 157ZM172 157L171 159L174 160L173 157ZM95 158L95 160L102 166L96 159ZM153 158L148 165L154 159L155 158ZM199 158L196 165L191 167L191 169L198 165L200 159ZM104 159L106 162L109 161L111 166L112 165L109 160ZM113 159L113 161L116 163L117 160L116 159ZM160 162L157 167L161 163L161 162ZM61 165L64 168L65 167ZM146 165L141 166L138 170L139 171L142 167L146 167L146 165ZM115 166L120 168L122 171L123 170L121 167ZM199 166L198 168L200 168L201 166ZM129 169L128 172L130 176L130 169ZM165 169L164 171L166 173L166 169ZM136 170L136 172L138 173L137 170ZM109 171L109 172L112 173L111 171ZM139 175L140 178L142 178L140 175ZM46 176L46 178L48 178L47 176ZM154 176L153 178L157 178L157 177ZM130 178L130 181L131 181L132 178ZM216 178L223 190L226 189L225 195L228 192L226 199L233 194L223 186L226 183ZM164 180L161 182L163 182L164 180ZM103 181L103 183L108 183L107 181ZM154 181L154 182L157 183L158 181ZM33 182L29 184L30 186L32 186L31 185L33 182ZM135 182L132 184L134 186L135 182ZM214 182L214 183L220 189L217 184L219 183L217 184ZM36 185L33 187L34 188L36 185ZM130 185L130 190L131 187ZM170 187L170 189L173 192L173 191ZM25 188L19 194L24 196ZM83 194L80 198L82 198L84 194ZM207 194L214 199L215 198L209 194ZM43 195L41 199L44 196L44 195ZM89 196L88 198L90 198L91 196ZM236 196L231 198L236 206L241 204ZM17 197L10 203L15 205L17 201L16 205L17 198L20 199ZM26 197L26 199L29 198L29 197ZM165 198L167 202L169 201L166 198ZM232 199L232 200L235 202L234 199ZM35 200L33 203L36 202L36 200ZM86 201L77 210L84 211ZM169 202L168 203L172 209L173 209L173 207L170 205L171 202ZM10 205L4 211L9 215ZM72 207L68 214L69 214L73 208ZM240 207L238 209L245 216ZM23 209L20 213L22 213L24 210ZM173 211L177 220L180 218ZM12 212L10 214L10 216L12 216L14 212ZM6 215L0 223L3 227L10 221ZM18 215L16 220L19 216ZM78 216L72 224L78 224ZM243 220L245 225L247 226L245 225L246 220ZM177 221L178 231L181 231ZM8 224L4 228L6 228L8 225ZM78 225L78 227L75 227L75 238L78 237L77 230L79 233L79 230L77 229L80 225ZM245 228L247 229L248 228ZM0 230L0 237L4 231ZM177 234L175 241L179 243L182 239ZM75 241L77 243L79 241ZM78 244L77 246L78 249L80 249L80 248ZM177 246L176 250L177 252L179 249L179 246ZM176 253L175 255L176 256L177 255Z" fill-rule="evenodd" style="fill:#743609;"/><path d="M129 30L129 46L128 42L123 51L119 46L125 56L119 56L119 69L115 71L113 64L114 71L120 74L122 71L121 76L126 73L124 77L131 87L133 76L129 74L137 77L132 65L140 75L139 68L130 63L127 66L133 61ZM29 38L29 40L31 40L30 38ZM31 41L31 43L33 43L32 41ZM220 45L218 50L221 46ZM128 47L122 52L122 54L125 54L125 52L129 48ZM91 48L89 51L90 52L92 48ZM215 52L214 56L216 53ZM41 54L41 55L45 58L42 54ZM86 57L86 59L82 63L86 62L87 58ZM131 57L132 59L133 59L133 57ZM116 58L114 62L117 59L117 58ZM171 58L172 62L173 60ZM77 63L76 69L81 63ZM136 63L137 66L138 65ZM84 64L83 73L74 72L68 78L72 83L73 78L72 83L76 82L78 89L81 86L80 90L79 81L84 82ZM173 64L173 68L175 68L174 64ZM155 69L155 70L159 73L156 69ZM174 69L173 83L175 76L175 81L178 79ZM108 71L105 73L107 73L110 71ZM1 73L1 75L4 76L3 78L5 77L2 73ZM100 73L100 77L102 77L103 74L101 75ZM178 73L180 80L182 76ZM110 75L109 77L111 77L111 75ZM183 77L182 80L182 83L184 78ZM98 78L96 82L99 79L99 78ZM110 78L109 80L111 79L111 82L111 83L113 83L113 81ZM134 78L135 80L136 80L136 78ZM255 78L253 81L255 82L256 79ZM5 79L10 84L11 83L7 79ZM104 79L98 95L110 83L106 79L104 83ZM250 79L238 87L241 93L248 91ZM148 80L148 84L149 81ZM170 81L170 83L172 82L172 81ZM179 81L178 83L179 85L181 83L181 81ZM94 83L92 87L95 84L95 83ZM12 84L12 86L16 86L16 88L17 87L14 84ZM152 84L158 91L159 91L153 84ZM248 84L248 86L250 87L250 84ZM42 85L42 87L44 86L44 85ZM68 88L68 90L70 91L69 88ZM76 88L75 90L76 91L77 88ZM236 88L236 90L238 92L239 91ZM22 89L23 91L25 91L25 89ZM233 89L232 91L235 92L235 90ZM26 90L26 92L28 92L28 90ZM79 90L79 92L81 91L81 90ZM224 90L224 92L226 96L226 93ZM29 91L30 93L32 93L32 91ZM130 91L130 95L131 92ZM229 91L230 93L231 93L231 91ZM95 92L96 95L97 94ZM220 92L220 96L221 93ZM56 93L50 102L54 103L49 103L54 114L55 111L55 114L61 111L59 108L62 110L63 106L63 98ZM125 93L124 98L121 95L125 102L120 108L118 97L109 108L108 113L114 113L106 122L108 134L118 132L122 141L112 135L108 146L119 151L122 141L125 158L131 152L136 158L137 146L145 150L153 139L154 133L142 135L145 132L142 129L152 130L154 117L149 104L142 99L139 103L143 111L138 97L129 100L131 96ZM198 93L194 107L203 114L207 100ZM76 94L76 96L74 95L75 98L77 97L76 99L78 100L78 97L79 94L77 96ZM93 97L94 100L95 99ZM55 101L54 104L56 107L55 104L57 101ZM143 103L145 104L146 103ZM120 108L115 113L116 115L118 115L117 114L120 109ZM103 111L99 125L106 117ZM147 111L147 114L149 114L149 111ZM217 111L216 114L216 116L218 112ZM155 112L154 113L156 119L159 122L157 117ZM187 114L183 118L187 116L187 114ZM73 115L74 118L75 117ZM102 127L98 128L99 142L96 136L98 142L105 142L107 135ZM156 127L157 138L160 131L156 133ZM6 128L6 129L10 132L7 128ZM188 130L187 134L189 131ZM74 132L74 136L75 133ZM140 138L138 142L139 144L141 138ZM75 141L76 144L77 143ZM146 141L146 143L148 142L148 141ZM153 141L150 147L151 147L154 141ZM134 143L134 144L137 145L136 143ZM102 145L105 151L109 152L108 150L105 150L107 148L105 145ZM154 146L152 150L153 150L155 146ZM61 149L58 155L61 162L69 164L70 153ZM193 149L189 154L187 152L190 160L186 164L195 160L194 164L197 158ZM144 152L138 160L148 152ZM112 153L121 163L120 154ZM130 154L128 160L129 161L129 159L131 172L132 157ZM63 155L63 158L65 161L65 159ZM193 155L191 159L192 160L194 156ZM118 159L118 160L122 161L122 159ZM46 176L46 178L48 178L47 176ZM216 178L222 187L226 183ZM33 182L29 184L30 186L32 186L31 185L33 182ZM214 182L214 183L220 189L217 184L219 183L217 184ZM36 185L33 187L34 188L36 185ZM227 186L223 188L229 195L226 199L233 194ZM25 188L19 194L24 196ZM209 194L209 196L214 199L215 199ZM89 196L88 198L90 198L91 196ZM236 196L231 198L236 206L241 204ZM17 197L10 203L15 205L17 201L16 205L17 198L20 199ZM165 198L167 202L169 201L166 198ZM232 199L232 200L235 202L234 199ZM86 201L77 210L84 211ZM169 202L168 203L172 209L173 209L173 207L170 205L171 202ZM10 205L10 207L12 207L11 205ZM240 207L238 209L245 216ZM8 208L4 211L9 215L12 208ZM173 211L177 220L180 218ZM6 215L0 226L8 218ZM78 216L72 224L78 224ZM243 220L245 225L247 226L245 225L246 220ZM177 221L178 231L181 231L180 225ZM75 227L75 238L78 237L78 227ZM245 228L247 229L248 228ZM0 230L0 234L1 231ZM177 234L180 243L181 234ZM75 241L77 243L79 241ZM78 244L77 246L78 249L80 249L80 248ZM177 246L176 250L177 252L179 249L179 246ZM176 253L175 255L176 256L177 255Z" fill-rule="evenodd" style="fill:#b55204;"/><path d="M129 30L129 46L128 42L123 51L119 46L125 56L119 56L119 69L115 71L113 64L114 71L120 74L122 71L121 76L126 73L124 77L131 88L133 76L129 74L137 77L132 65L140 75L139 68L130 63L127 66L133 61ZM29 38L29 40L31 40L30 38ZM31 41L31 43L33 43L32 41ZM220 45L218 50L221 46ZM128 47L122 52L122 54L125 54L125 52L129 48ZM91 48L89 51L90 52L92 48ZM215 52L214 56L216 53ZM41 54L41 55L45 58L42 54ZM86 57L86 59L82 63L86 62L87 58ZM131 57L132 59L133 59L133 57ZM116 58L114 62L117 59L117 58ZM171 58L172 62L173 60ZM77 63L76 69L81 63ZM136 63L137 66L138 65ZM84 64L83 73L74 72L68 78L72 83L73 78L72 83L76 82L78 89L81 86L80 90L79 81L84 82ZM173 64L173 68L175 68L174 64ZM155 69L155 70L159 73L156 69ZM174 69L173 83L175 76L175 81L178 79ZM108 71L105 73L107 73L110 71ZM1 73L1 75L4 76L3 78L5 77L2 73ZM100 73L100 77L102 77L103 74L101 75ZM178 73L180 80L182 76ZM110 75L109 77L111 77L111 75ZM183 77L182 80L182 83L184 78ZM98 78L96 82L99 79L99 78ZM110 78L109 80L111 79L111 82L111 83L113 83L113 81ZM134 78L135 80L136 80L136 78ZM256 78L253 81L255 82L256 79ZM5 79L10 84L11 83L7 79ZM104 79L98 94L110 84L106 79L104 83ZM250 79L238 87L242 87L241 91L247 89L243 87ZM148 80L148 84L149 81ZM170 81L170 83L172 82L172 81ZM179 81L178 83L179 85L181 83L181 81ZM94 83L92 87L95 84L95 83ZM12 84L12 86L16 86L16 88L17 87L14 84ZM152 84L152 85L156 88L153 84ZM248 84L248 86L250 87L250 84ZM42 85L42 87L44 86L44 85ZM68 88L68 90L70 91L69 88ZM76 88L75 90L76 91L77 88ZM156 88L156 89L160 92L157 88ZM22 89L23 91L25 91L25 89ZM233 89L232 91L235 92L235 90ZM26 90L26 92L28 92L28 90ZM79 90L79 92L81 91L81 90ZM224 90L224 92L226 96L226 93ZM29 91L30 93L32 93L32 91ZM229 91L230 93L231 93L231 91ZM95 92L96 95L97 94ZM220 92L220 96L221 93ZM56 95L55 101L52 98L52 102L57 101L53 112L55 109L60 112L58 107L63 98L58 99L60 95ZM198 95L195 108L201 111L204 107L200 101L206 108L206 103ZM93 97L94 100L95 99ZM125 97L127 98L128 97ZM126 99L124 101L131 105ZM132 99L132 101L136 101L137 100ZM120 101L110 107L110 113L117 111ZM140 102L140 105L143 110L146 111L148 111L145 110L146 105L141 104L142 102ZM51 103L51 108L54 105L54 103ZM125 104L121 111L122 122L117 115L111 116L106 126L109 132L121 129L119 133L128 143L136 141L141 134L140 123L148 130L152 122L150 115L143 114L138 123L140 109L136 104ZM148 108L148 111L150 111L149 108ZM217 111L216 114L216 116L218 112ZM187 114L183 118L187 116L187 114ZM73 115L74 118L75 117ZM105 116L104 119L104 121L106 117ZM153 126L152 128L153 129L154 126ZM6 128L6 129L10 132L7 128ZM103 128L101 134L106 138ZM149 133L139 143L141 148L146 143L141 144L149 137L148 145L153 138ZM117 135L109 138L119 149L122 142ZM134 144L125 145L123 150L132 155L138 149ZM62 151L61 155L70 158ZM193 152L187 156L189 162L196 156ZM130 154L130 159L131 156ZM61 156L61 158L63 158L62 156ZM193 158L192 161L193 162L195 158ZM63 159L63 161L67 162L67 161ZM46 176L46 178L48 178L47 176ZM216 178L222 187L226 183ZM33 182L29 184L30 186L32 186L31 185L33 182ZM214 182L214 183L220 189L217 184L219 183L217 184ZM36 185L33 187L34 188L36 185ZM227 186L223 188L229 195L226 199L233 194ZM25 188L19 194L24 196ZM89 196L88 198L90 198L91 196ZM236 196L231 198L236 206L241 204ZM17 197L10 203L15 205L17 201L16 205L17 198L20 199ZM165 198L167 202L169 201L166 198ZM232 199L232 200L235 202L234 199ZM86 201L77 210L84 211ZM169 202L168 203L172 209L173 209L173 207L170 205L171 202ZM10 205L10 207L12 207L11 205ZM240 207L238 209L245 216ZM8 208L4 211L9 215L12 208ZM173 211L177 220L180 218ZM6 215L3 217L0 223L0 226L2 226L5 218L6 215ZM78 216L72 224L78 224ZM243 220L245 225L247 226L245 225L246 220ZM177 221L178 231L181 231L180 225L178 224L179 222ZM75 227L75 238L78 237L78 227ZM245 228L247 229L248 228ZM177 234L179 235L182 234ZM179 236L178 239L177 243L180 243L180 236ZM75 241L77 243L79 241ZM78 244L77 246L78 249L80 249L80 248ZM177 246L176 250L177 252L179 249L179 246ZM176 253L175 255L177 256L177 253Z" fill-rule="evenodd" style="fill:#9b805c;"/><path d="M129 37L129 47L130 41ZM129 59L125 63L126 65L130 60ZM84 64L84 68L85 65ZM129 64L125 70L126 71L131 66L130 64ZM123 65L123 69L124 66ZM129 70L126 74L130 77L128 74L132 70ZM116 71L116 72L120 74L120 73ZM83 72L82 75L84 75L84 72ZM78 76L78 79L81 79L81 77L79 78ZM82 76L84 80L83 82L81 80L81 82L83 84L85 80L84 76ZM173 78L173 83L174 80ZM255 78L254 82L256 79ZM7 80L10 84L11 84L8 80ZM108 81L109 83L105 87L110 84L110 81ZM12 84L12 86L14 86L14 84ZM248 84L249 86L250 86L250 84ZM246 86L241 88L241 91L247 88L247 86ZM103 88L101 92L104 89L104 88ZM56 95L55 101L52 98L52 102L57 101L53 112L55 109L60 112L58 107L63 98L58 99L60 95ZM198 95L195 108L201 111L204 107L200 101L206 108L206 103ZM125 97L127 98L128 97ZM126 99L124 101L131 105ZM132 99L132 101L136 101L137 100ZM120 101L110 107L111 112L108 111L117 112ZM140 102L140 105L143 110L146 111L148 111L145 110L146 105L141 104L142 102ZM51 103L51 108L54 105L54 103ZM125 104L121 111L122 122L117 115L111 116L106 126L109 132L121 129L119 133L128 143L136 141L141 134L140 123L148 130L152 122L150 115L143 114L138 123L140 109L136 104ZM148 108L148 111L150 111L149 108ZM105 116L104 119L104 121L106 117ZM153 126L152 128L153 129L154 126ZM103 128L101 134L106 138ZM149 133L139 143L141 148L146 143L141 144L149 137L148 145L153 138ZM117 135L109 138L119 149L122 142ZM134 144L125 145L123 150L132 155L138 149ZM62 151L61 155L70 158ZM193 152L187 156L189 162L196 156ZM130 154L130 159L131 156ZM61 156L61 158L63 158L62 156ZM193 158L192 161L193 162L195 158ZM63 159L63 161L67 162L67 161ZM217 180L221 188L223 185ZM224 187L223 189L224 190L226 187ZM226 189L227 191L228 191L228 190ZM22 191L19 194L22 195L23 192ZM229 192L228 194L231 195L230 192ZM14 201L12 204L14 204L16 201ZM83 205L80 210L82 210L85 205ZM8 209L5 213L7 214L8 214L10 210ZM240 210L242 216L244 216L242 211ZM173 211L174 215L176 220L178 219L175 211ZM3 216L0 224L1 226L5 218ZM77 217L76 222L77 223L78 222ZM243 220L245 222L246 225L246 221ZM177 221L177 224L179 223L178 221ZM178 225L178 231L180 231L180 225ZM75 227L75 238L78 237L77 227ZM179 236L178 239L178 243L180 243L180 236ZM76 241L77 243L78 243L78 241ZM77 245L78 248L79 248L79 245ZM177 247L176 251L178 251L179 247Z" fill-rule="evenodd" style="fill:#e9860a;"/><path d="M129 37L129 47L130 41ZM129 59L125 63L126 65L130 60ZM84 64L84 68L85 65ZM129 64L125 70L126 71L131 66L130 64ZM123 65L123 69L124 66ZM129 70L126 74L130 77L128 74L132 70ZM116 71L116 72L120 74L120 73ZM83 72L82 75L84 75L84 72ZM78 76L78 79L81 79L81 77L79 78ZM82 76L84 80L83 82L81 80L81 82L83 84L85 80L84 76ZM173 78L173 83L174 80ZM255 78L254 82L256 79ZM7 80L10 84L11 84L8 80ZM108 81L109 83L105 87L110 84L110 81ZM12 84L12 86L14 86L14 84ZM248 84L249 86L250 86L250 84ZM245 86L241 89L241 91L247 88L247 86ZM103 88L101 92L104 89L104 88ZM59 99L58 106L62 101ZM196 99L196 104L199 106L200 103L198 100ZM126 104L128 106L124 105L120 113L124 121L135 121L140 114L134 106ZM136 105L139 111L140 111L140 110ZM119 106L117 110L118 111L120 106ZM116 115L113 124L120 123L116 124L119 128L115 127L117 132L112 125L117 132L122 123ZM143 115L140 121L144 130ZM129 123L121 132L124 140L140 131L137 125ZM140 132L139 135L136 139L137 140L141 132ZM143 134L141 139L142 140L142 138L144 139L144 134ZM117 135L117 136L121 143L122 142ZM128 141L131 142L134 141ZM126 145L128 146L131 145ZM131 145L133 146L134 145ZM65 153L64 154L66 159L68 159L68 157L66 157L68 155L68 153ZM190 155L189 159L191 159L191 158L192 155ZM217 180L221 188L223 185ZM224 187L223 189L224 190L226 187ZM226 189L227 191L228 191L228 190ZM22 191L19 194L22 195L23 192ZM229 192L228 194L231 195L230 192ZM14 201L12 204L14 204L16 201ZM83 205L80 210L82 210L85 205ZM8 209L5 213L7 214L8 214L10 210ZM240 210L242 216L244 216L242 211ZM173 211L173 213L176 217L175 213L175 211ZM3 216L0 224L1 226L5 218ZM77 217L76 222L77 223L78 222ZM175 217L176 220L178 219L177 217ZM243 220L245 222L246 225L246 221ZM177 221L177 224L179 223L178 221ZM178 225L178 231L180 231L180 225ZM75 227L75 238L78 237L77 227ZM179 237L178 240L178 243L180 243L180 237ZM76 241L77 243L78 243L78 241ZM77 245L78 248L79 248L79 245ZM177 247L176 251L178 251L179 247Z" fill-rule="evenodd" style="fill:#f8b023;"/><path d="M129 37L129 47L130 41ZM129 59L125 63L126 65L130 60ZM84 64L84 68L85 65ZM129 64L125 70L126 71L131 66L130 64ZM123 65L123 69L124 66ZM129 70L126 74L130 77L128 74L132 70ZM116 71L116 72L120 74L120 73ZM83 72L82 75L84 75L84 72ZM78 76L78 79L81 79L81 77L79 78ZM82 76L84 80L83 82L81 80L81 82L83 84L85 80L84 76ZM173 78L173 83L174 80ZM7 80L10 84L11 84L8 80ZM108 81L109 83L105 87L110 84L110 81ZM12 84L12 86L14 86L14 84ZM248 84L249 86L250 86L250 84ZM245 86L241 89L241 91L247 88L246 86ZM103 88L101 92L104 89L104 88ZM217 180L221 188L223 185ZM224 187L223 189L224 190L226 187ZM226 189L227 191L228 191L228 190ZM22 191L19 194L22 195L23 192ZM229 192L228 194L231 195L230 192ZM14 201L12 204L14 204L16 201ZM83 205L80 210L82 210L85 205ZM8 209L5 213L7 214L8 214L10 210ZM240 210L242 216L244 216L242 211ZM173 211L173 213L176 217L175 213L175 211ZM77 217L76 222L77 223L78 222ZM175 217L176 220L178 219L177 217ZM2 218L0 224L1 226L4 220ZM243 220L245 222L246 225L246 221ZM177 221L177 224L179 223L178 221ZM75 227L75 238L78 237L77 227ZM179 229L178 231L180 231L180 229ZM179 237L178 238L178 241L180 241L180 237ZM76 241L77 243L78 243L78 241ZM77 245L78 248L79 248L79 245ZM177 247L176 251L178 251L179 247Z" fill-rule="evenodd" style="fill:#bda57e;"/><path d="M244 87L241 90L248 87ZM229 192L228 194L231 195L230 192ZM7 211L7 214L8 214L9 211ZM176 217L176 219L178 219L177 217ZM2 219L0 223L0 225L2 224L1 222L3 222L4 219ZM76 221L76 223L78 222L78 221ZM74 227L76 231L75 233L77 232L77 229ZM75 234L75 236L77 235L77 234ZM178 239L179 241L180 241L180 239Z" fill-rule="evenodd" style="fill:#e5cda0;"/></svg>
